<svg xmlns="http://www.w3.org/2000/svg" viewBox="0 0 570.51 522.51"><defs><style>.cls-1{fill:#3ebbdd;}.cls-2{fill:#0b9fb7;}.cls-3{fill:#3f3f3f;}.cls-4{fill:#fff;}.cls-5{fill:#ddd;}.cls-6{fill:#2b2b2b;}</style></defs><title>cloud_storage</title><g id="Layer_2" data-name="Layer 2"><g id="Layer_1-2" data-name="Layer 1"><path class="cls-1" d="M480.51,131.4a56.23,56.23,0,0,0,2.18-15.58c0-29.18-22.12-52.84-49.41-52.84a46.68,46.68,0,0,0-21.66,5.34c-10.51-24.76-33.82-42-60.91-42-28.8,0-53.35,19.46-62.77,46.75A49.44,49.44,0,0,0,259.41,64c-28.75,0-52.06,24.92-52.06,55.65a59.84,59.84,0,0,0,1,10.62c-24.47,2-43.76,23.8-43.76,50.46,0,27.95,21.21,50.62,47.36,50.62H469.75c26.15,0,47.35-22.67,47.35-50.62C517.1,156.69,501.47,136.6,480.51,131.4Z"/><path class="cls-2" d="M434,133.13a60.41,60.41,0,0,0,5.59-25.52c0-30.79-22.56-55.76-50.38-55.76a45.74,45.74,0,0,0-9,.92C370.4,22,344,0,312.88,0c-22.27,0-42.15,11.31-55.22,29a48.1,48.1,0,0,0-27-8.37c-26.25,0-47.94,21.55-51.46,49.53a38.72,38.72,0,0,0-10.69-1.51c-23.33,0-42.24,20.93-42.24,46.75a51.19,51.19,0,0,0,2.18,14.83C112,138.64,100.61,157,100.61,178.34c0,29.25,21.43,53,47.86,53H409c26.43,0,47.86-23.72,47.86-53C456.89,159.2,447.71,142.44,434,133.13Z"/><path class="cls-1" d="M369.36,131.4a56.23,56.23,0,0,0,2.19-15.58c0-29.18-22.13-52.84-49.42-52.84a46.64,46.64,0,0,0-21.65,5.34c-10.51-24.76-33.82-42-60.92-42-28.8,0-53.34,19.46-62.76,46.75A49.49,49.49,0,0,0,148.26,64c-28.74,0-52,24.92-52,55.65a59.84,59.84,0,0,0,1,10.62c-24.46,2-43.75,23.8-43.75,50.46,0,27.95,21.21,50.62,47.36,50.62H358.61c26.15,0,47.35-22.67,47.35-50.62C406,156.69,390.33,136.6,369.36,131.4Z"/><rect class="cls-3" x="193.75" y="237.42" width="183.02" height="6.19"/><rect class="cls-3" x="280.21" y="209.5" width="10.08" height="54.25"/><rect class="cls-4" x="238.66" y="82.86" width="93.19" height="139.81" rx="7.14"/><path class="cls-3" d="M297.17,111.61A11.92,11.92,0,1,1,285.25,99.7,11.91,11.91,0,0,1,297.17,111.61Z"/><rect class="cls-3" x="250" y="134.37" width="70.5" height="8.13" rx="2.77"/><rect class="cls-3" x="250" y="156.22" width="70.5" height="8.13" rx="2.77"/><rect class="cls-3" x="250" y="178.07" width="70.5" height="8.13" rx="2.77"/><rect class="cls-3" x="250" y="199.92" width="70.5" height="8.13" rx="2.77"/><path class="cls-3" d="M298.05,263.75A12.8,12.8,0,1,1,285.25,251,12.8,12.8,0,0,1,298.05,263.75Z"/><rect class="cls-3" x="191.55" y="216.33" width="7.39" height="39.77"/><circle class="cls-3" cx="195.25" cy="258.4" r="9.38"/><rect class="cls-4" x="161.09" y="118.32" width="68.31" height="102.48" rx="5.23"/><path class="cls-3" d="M202.11,140a8.74,8.74,0,1,1-8.74-8.74A8.74,8.74,0,0,1,202.11,140Z"/><rect class="cls-3" x="167.54" y="156.72" width="51.68" height="5.96" rx="2.03"/><rect class="cls-3" x="167.54" y="172.73" width="51.68" height="5.96" rx="2.03"/><rect class="cls-3" x="167.54" y="188.75" width="51.68" height="5.96" rx="2.03"/><rect class="cls-3" x="167.54" y="204.77" width="51.68" height="5.96" rx="2.03"/><rect class="cls-3" x="373.36" y="216.33" width="7.54" height="40.59"/><path class="cls-3" d="M386.71,258.21a9.58,9.58,0,1,1-9.58-9.58A9.57,9.57,0,0,1,386.71,258.21Z"/><rect class="cls-4" x="341.1" y="118.32" width="68.31" height="102.48" rx="5.23"/><path class="cls-3" d="M385.87,140a8.74,8.74,0,1,1-8.74-8.74A8.74,8.74,0,0,1,385.87,140Z"/><rect class="cls-3" x="351.3" y="156.72" width="51.68" height="5.96" rx="2.03"/><rect class="cls-3" x="351.3" y="172.73" width="51.68" height="5.96" rx="2.03"/><rect class="cls-3" x="351.3" y="188.75" width="51.68" height="5.96" rx="2.03"/><rect class="cls-3" x="351.3" y="204.77" width="51.68" height="5.96" rx="2.03"/><rect class="cls-3" x="282.72" y="267.56" width="5.07" height="6.34"/><rect class="cls-3" x="282.72" y="283.26" width="5.07" height="15.61"/><polygon class="cls-3" points="287.79 317.12 278.91 317.12 278.91 312.04 282.72 312.04 282.72 308.24 287.79 308.24 287.79 317.12"/><path class="cls-3" d="M271.57,317.12H259.33V312h12.24Zm-19.59,0H239.74V312H252Zm-19.59,0H220.15V312h12.24Zm-19.58,0H200.56V312h12.25Zm-19.59,0H181V312h12.24Zm-19.59,0H161.39V312h12.24Zm-19.59,0H141.8V312H154Zm-19.59,0H122.21V312h12.24Zm-19.58,0H102.62V312h12.25Zm-19.59,0H83V312H95.28Z"/><polygon class="cls-3" points="71.89 320.92 66.81 320.92 66.81 312.04 75.69 312.04 75.69 317.12 71.89 317.12 71.89 320.92"/><path class="cls-3" d="M71.89,375.38H66.81V364h5.08Zm0-18.15H66.81V345.88h5.08Zm0-18.16H66.81V327.73h5.08Z"/><rect class="cls-3" x="66.81" y="382.19" width="5.07" height="6.34"/><rect class="cls-3" x="282.61" y="267.56" width="5.07" height="6.34"/><rect class="cls-3" x="282.61" y="283.26" width="5.07" height="15.61"/><polygon class="cls-3" points="291.48 317.12 282.61 317.12 282.61 308.24 287.68 308.24 287.68 312.04 291.48 312.04 291.48 317.12"/><path class="cls-3" d="M508,317.12h-12.3V312H508Zm-19.68,0H476V312h12.31Zm-19.69,0h-12.3V312h12.3Zm-19.68,0H436.66V312H449Zm-19.69,0H417V312h12.3Zm-19.68,0H397.29V312H409.6Zm-19.69,0h-12.3V312h12.3Zm-19.68,0H357.92V312h12.31Zm-19.69,0h-12.3V312h12.3Zm-19.69,0h-12.3V312h12.3Zm-19.68,0h-12.3V312h12.3Z"/><polygon class="cls-3" points="524.28 320.92 519.21 320.92 519.21 317.12 515.41 317.12 515.41 312.04 524.28 312.04 524.28 320.92"/><path class="cls-3" d="M524.28,375.38h-5.07V364h5.07Zm0-18.15h-5.07V345.88h5.07Zm0-18.16h-5.07V327.73h5.07Z"/><rect class="cls-3" x="519.21" y="382.19" width="5.07" height="6.34"/><rect class="cls-3" x="207.42" y="320.92" width="5.07" height="6.34"/><path class="cls-3" d="M212.49,376.7h-5.07v-11h5.07Zm0-16.48h-5.07v-11h5.07Zm0-16.48h-5.07v-11h5.07Z"/><rect class="cls-3" x="207.42" y="382.19" width="5.07" height="6.34"/><rect class="cls-3" x="361.28" y="320.92" width="5.07" height="6.34"/><path class="cls-3" d="M366.36,376.7h-5.08v-11h5.08Zm0-16.48h-5.08v-11h5.08Zm0-16.48h-5.08v-11h5.08Z"/><rect class="cls-3" x="361.28" y="382.19" width="5.07" height="6.34"/><rect class="cls-5" x="472.98" y="399.39" width="97.52" height="123.11" rx="5.85"/><rect class="cls-1" x="480.86" y="410.29" width="81.77" height="98.29"/><rect class="cls-1" x="513.13" y="405.42" width="17.23" height="0.93" rx="0.44"/><path class="cls-1" d="M526.14,515.23a4.4,4.4,0,1,1-4.39-4.39A4.4,4.4,0,0,1,526.14,515.23Z"/><path class="cls-6" d="M548.16,445.79h-5.84V445a1.83,1.83,0,0,0-1.9-1.76H503.08a1.84,1.84,0,0,0-1.91,1.76v.75h-5.84a1.74,1.74,0,0,0-1.74,1.74v26.84a1.74,1.74,0,0,0,1.74,1.74h5.84v.75a1.84,1.84,0,0,0,1.91,1.76h37.34a1.83,1.83,0,0,0,1.9-1.76v-.75h5.84a1.74,1.74,0,0,0,1.74-1.74V447.53A1.74,1.74,0,0,0,548.16,445.79Z"/><rect class="cls-4" x="507.13" y="449.56" width="29.23" height="22.77"/><path class="cls-4" d="M505.12,459.06h-2.87v-2.87a.44.44,0,0,0-.4-.46h-3a.44.44,0,0,0-.41.46v2.87H495.6a.44.44,0,0,0-.46.4v3a.44.44,0,0,0,.46.4h2.87v2.87a.44.44,0,0,0,.41.46h3a.44.44,0,0,0,.4-.46v-2.87h2.87a.43.43,0,0,0,.46-.4v-3A.43.43,0,0,0,505.12,459.06Z"/><path class="cls-4" d="M542.18,461a2,2,0,1,1-2-2A2,2,0,0,1,542.18,461Z"/><path class="cls-4" d="M548.7,461a2,2,0,1,1-2-2A2,2,0,0,1,548.7,461Z"/><path class="cls-4" d="M543.43,459.71a2,2,0,1,1,2-2A2,2,0,0,1,543.43,459.71Z"/><path class="cls-4" d="M543.43,466.22a2,2,0,1,1,2-2A2,2,0,0,1,543.43,466.22Z"/><polygon class="cls-5" points="59.26 499.15 57.23 520.73 81.47 520.73 79.44 499.15 59.26 499.15"/><path class="cls-5" d="M138.7,500.27a3.17,3.17,0,0,1-3.24,3.1H3.24A3.17,3.17,0,0,1,0,500.27V403.06A3.17,3.17,0,0,1,3.24,400H135.46a3.17,3.17,0,0,1,3.24,3.1Z"/><rect class="cls-1" x="6.12" y="405.74" width="126.45" height="86.04"/><path class="cls-6" d="M76.41,497.55c0,.61-.65,1.09-1.46,1.09H63.75c-.81,0-1.46-.48-1.46-1.09h0c0-.6.65-1.08,1.46-1.08H75c.81,0,1.46.48,1.46,1.08Z"/><path class="cls-5" d="M86.29,522c0,.28-.42.52-.92.52h-32c-.51,0-.92-.24-.92-.52v-2.52c0-.29.41-.52.92-.52h32c.5,0,.92.23.92.52Z"/><path class="cls-4" d="M60.64,425.58V424.5a1.89,1.89,0,0,0-1.89-1.88H43a3.91,3.91,0,0,0-3.9,3.9V471a3.92,3.92,0,0,0,3.9,3.9H95.69a3.92,3.92,0,0,0,3.9-3.9V429.36a1.89,1.89,0,0,0-1.89-1.89H62.53A1.88,1.88,0,0,1,60.64,425.58Z"/><rect class="cls-1" x="44.62" y="432.42" width="49.46" height="36.6" rx="0.61"/><path class="cls-6" d="M39.11,437.3V471a3.92,3.92,0,0,0,3.9,3.9H95.69a3.92,3.92,0,0,0,3.9-3.9V437.3Z"/><path class="cls-5" d="M369.45,512.5v1.66H358.19V512.5h-70.9v1.92c0,4.47,2.11,8.09,4.72,8.09H435.63c2.6,0,4.72-3.62,4.72-8.09V512.5Z"/><path class="cls-5" d="M438.91,507.44a1.25,1.25,0,0,1-1.09,1.36h-148a1.25,1.25,0,0,1-1.09-1.36V400.76a1.25,1.25,0,0,1,1.09-1.36h148a1.25,1.25,0,0,1,1.09,1.36Z"/><rect class="cls-1" x="294.74" y="406.43" width="138.15" height="95.34"/><rect class="cls-6" x="325.05" y="434.63" width="77.55" height="38.94"/><path class="cls-1" d="M367.85,473.36c-.92,0-1.67-.55-1.67-1.21v-36.1c0-.66.75-1.21,1.67-1.21h30c.92,0,1.66.55,1.66,1.21v36.1c0,.66-.74,1.21-1.66,1.21Z"/><path class="cls-1" d="M329.81,473.36c-.92,0-1.67-.55-1.67-1.21v-36.1c0-.66.75-1.21,1.67-1.21h30c.92,0,1.67.55,1.67,1.21v36.1c0,.66-.75,1.21-1.67,1.21Z"/><rect class="cls-6" x="322" y="427.45" width="83.64" height="8.5"/><rect class="cls-4" x="400.39" y="429.85" width="2.93" height="3.7"/><rect class="cls-4" x="395.64" y="429.85" width="2.93" height="3.7"/><rect class="cls-4" x="390.88" y="429.85" width="2.93" height="3.7"/><rect class="cls-4" x="386.13" y="429.85" width="2.93" height="3.7"/><rect class="cls-4" x="381.37" y="429.85" width="2.93" height="3.7"/><rect class="cls-4" x="376.62" y="429.85" width="2.93" height="3.7"/><rect class="cls-4" x="371.86" y="429.85" width="2.93" height="3.7"/><rect class="cls-4" x="367.11" y="429.85" width="2.93" height="3.7"/><rect class="cls-4" x="362.35" y="429.85" width="2.93" height="3.7"/><rect class="cls-4" x="357.6" y="429.85" width="2.93" height="3.7"/><rect class="cls-4" x="352.84" y="429.85" width="2.93" height="3.7"/><rect class="cls-4" x="348.09" y="429.85" width="2.93" height="3.7"/><rect class="cls-4" x="343.33" y="429.85" width="2.93" height="3.7"/><rect class="cls-4" x="338.58" y="429.85" width="2.93" height="3.7"/><rect class="cls-4" x="333.82" y="429.85" width="2.93" height="3.7"/><rect class="cls-4" x="329.07" y="429.85" width="2.93" height="3.7"/><rect class="cls-4" x="324.31" y="429.85" width="2.93" height="3.7"/><rect class="cls-6" x="322" y="472.25" width="83.64" height="8.5"/><rect class="cls-4" x="400.39" y="474.65" width="2.93" height="3.7"/><rect class="cls-4" x="395.64" y="474.65" width="2.93" height="3.7"/><rect class="cls-4" x="390.88" y="474.65" width="2.93" height="3.7"/><rect class="cls-4" x="386.13" y="474.65" width="2.93" height="3.7"/><rect class="cls-4" x="381.37" y="474.65" width="2.93" height="3.7"/><rect class="cls-4" x="376.62" y="474.65" width="2.93" height="3.7"/><rect class="cls-4" x="371.86" y="474.65" width="2.93" height="3.7"/><rect class="cls-4" x="367.11" y="474.65" width="2.93" height="3.7"/><rect class="cls-4" x="362.35" y="474.65" width="2.93" height="3.7"/><rect class="cls-4" x="357.6" y="474.65" width="2.93" height="3.7"/><rect class="cls-4" x="352.84" y="474.65" width="2.93" height="3.7"/><rect class="cls-4" x="348.09" y="474.65" width="2.93" height="3.7"/><rect class="cls-4" x="343.33" y="474.65" width="2.93" height="3.7"/><rect class="cls-4" x="338.58" y="474.65" width="2.93" height="3.7"/><rect class="cls-4" x="333.82" y="474.65" width="2.93" height="3.7"/><rect class="cls-4" x="329.07" y="474.65" width="2.93" height="3.7"/><rect class="cls-4" x="324.31" y="474.65" width="2.93" height="3.7"/><path class="cls-4" d="M378.18,454.1a14.36,14.36,0,1,1-14.36-14.36A14.36,14.36,0,0,1,378.18,454.1Z"/><path class="cls-6" d="M371.07,453.36l-11.54-6.66a.86.86,0,0,0-.85,0,.85.85,0,0,0-.43.74v13.32a.85.85,0,0,0,.43.74.81.81,0,0,0,.43.11.8.8,0,0,0,.42-.11l11.54-6.66a.86.86,0,0,0,.43-.74A.87.87,0,0,0,371.07,453.36Z"/><path class="cls-5" d="M176.45,519.75a2.58,2.58,0,0,0,2.36,2.76h66.37a2.58,2.58,0,0,0,2.36-2.76V402.32a2.58,2.58,0,0,0-2.36-2.75H178.81a2.57,2.57,0,0,0-2.36,2.75Z"/><path class="cls-1" d="M201.74,406.73a.76.76,0,0,0,.77.77h19a.77.77,0,0,0,.77-.77h0a.78.78,0,0,0-.77-.77h-19a.77.77,0,0,0-.77.77Z"/><path class="cls-1" d="M204.58,509.13a7.42,7.42,0,1,0,7.42-7.42A7.42,7.42,0,0,0,204.58,509.13Z"/><rect class="cls-1" x="183.46" y="413.25" width="57.08" height="85.88"/><path class="cls-4" d="M196.66,457.22a15.35,15.35,0,0,1,30.67,0H229a17.06,17.06,0,0,0-34.09,0Z"/><path class="cls-4" d="M196.39,457.4a6,6,0,1,0,0,12Z"/><rect class="cls-4" x="194.68" y="456.81" width="2.18" height="13.14" rx="0.87"/><path class="cls-4" d="M227.6,469.37a6,6,0,1,0,0-12Z"/><rect class="cls-4" x="227.13" y="456.81" width="2.18" height="13.14" rx="0.87" transform="translate(456.44 926.77) rotate(180)"/><polygon class="cls-4" points="200.42 457.7 199.8 462.14 199.53 459.13 198.97 462.17 197.74 462.17 197.74 462.76 199.33 462.76 199.38 462.48 199.71 466.11 200.31 461.79 200.61 465.36 200.89 465.36 201.14 462.74 201.42 462.74 201.42 462.15 200.79 462.15 200.42 457.7"/><polygon class="cls-4" points="225.01 462.17 224.46 459.13 224.19 462.15 223.57 457.7 223.2 462.15 222.57 462.15 222.57 462.74 222.84 462.74 223.1 465.36 223.38 465.36 223.68 461.79 224.28 466.11 224.61 462.48 224.66 462.76 226.25 462.76 226.25 462.17 225.01 462.17"/><rect class="cls-4" x="202.22" y="458.08" width="0.97" height="7.66"/><rect class="cls-4" x="216.15" y="458.08" width="0.97" height="7.66"/><rect class="cls-4" x="220.8" y="458.08" width="0.97" height="7.66"/><rect class="cls-4" x="206.86" y="457.59" width="0.97" height="8.63"/><rect class="cls-4" x="203.77" y="457.41" width="0.97" height="8.98"/><rect class="cls-4" x="214.6" y="457.41" width="0.97" height="8.98"/><rect class="cls-4" x="219.25" y="457.41" width="0.97" height="8.98"/><rect class="cls-4" x="208.41" y="456.79" width="0.97" height="10.22"/><rect class="cls-4" x="213.06" y="456.57" width="0.97" height="10.68"/><rect class="cls-4" x="217.7" y="456.57" width="0.97" height="10.68"/><rect class="cls-4" x="209.96" y="455.63" width="0.97" height="12.56"/><rect class="cls-4" x="205.31" y="456.18" width="0.97" height="11.46"/><rect class="cls-4" x="211.51" y="456.66" width="0.97" height="10.49"/></g></g></svg>