<svg xmlns="http://www.w3.org/2000/svg" viewBox="0 0 247.52 367.43"><defs><style>.cls-1{fill:#455a64;}.cls-2{fill:#263238;}.cls-3{fill:#e8505b;}</style></defs><title>filter</title><g id="Layer_2" data-name="Layer 2"><g id="Funnel"><path class="cls-1" d="M99.41,226.13s-79-84.6-88.32-95.69C7.05,125.63,1,113.09.25,108.91A14.84,14.84,0,0,1,7.65,93.2c12.48-6.84,43.76-16,121.74-16,65.7,0,95.32,7.59,108.65,14.74A18.08,18.08,0,0,1,247,112h0a35.89,35.89,0,0,1-8.59,16.16l-90.5,98-8.09,68.53H111.31Z"/><path class="cls-2" d="M230.9,98.62a4.46,4.46,0,0,1,.69,7.9c-18.68,12-42.17,15.2-64.59,16.67-50.3,3.28-128.88,1.29-152.21-18.93a2.67,2.67,0,0,1,.86-4.55C23.78,96.88,47.88,87.46,122.47,88,187.65,88.51,218.55,93.61,230.9,98.62Z"/><path class="cls-2" d="M149.42,225.18a1.93,1.93,0,0,1-.46.28l-1.35.72c-.58.31-1.31.67-2.18,1s-1.84.83-3,1.2l-1.76.62c-.61.21-1.27.38-1.94.58-1.33.42-2.8.71-4.33,1a59.64,59.64,0,0,1-10.16,1.07,61.05,61.05,0,0,1-10.19-.8c-1.54-.31-3-.56-4.36-1-.68-.18-1.34-.33-2-.53l-1.78-.57c-1.14-.34-2.12-.78-3-1.13a21.65,21.65,0,0,1-2.21-1l-1.37-.68a1.76,1.76,0,0,1-.46-.27,1.79,1.79,0,0,1,.51.17l1.4.59c.61.27,1.35.59,2.24.89s1.87.73,3,1.05l1.77.54c.61.18,1.27.32,1.94.49,1.34.37,2.81.61,4.34.89a57.65,57.65,0,0,0,20.18-.26c1.52-.32,3-.6,4.31-1,.66-.19,1.32-.34,1.93-.54l1.75-.59c1.13-.34,2.11-.78,3-1.12s1.61-.66,2.21-.95l1.39-.62A2.44,2.44,0,0,1,149.42,225.18Z"/><path class="cls-2" d="M238.33,101.17s-.15.14-.47.38l-1.41,1.1-2.32,1.76-3.32,2.17a85.2,85.2,0,0,1-9.6,5.15,102.75,102.75,0,0,1-13.53,5,145.47,145.47,0,0,1-17,3.89c-6.2,1-12.87,1.83-19.9,2.44-14.07,1.17-29.59,2-45.89,1.92-8.15,0-16.11-.23-23.78-.69S86,123.23,79,122.42a367.37,367.37,0,0,1-37-6,67.93,67.93,0,0,1-23.52-9,28,28,0,0,1-5.38-4.28,10.54,10.54,0,0,1-1.1-1.41l-.33-.52A21.91,21.91,0,0,0,13.16,103a28.51,28.51,0,0,0,5.4,4.19A68.69,68.69,0,0,0,42.06,116c10.44,2.18,23,4.41,37,5.91,7,.8,14.39,1.38,22.06,1.82s15.61.65,23.75.67c16.28,0,31.79-.74,45.85-1.88,7-.59,13.68-1.37,19.87-2.39a148.52,148.52,0,0,0,17-3.81,104.14,104.14,0,0,0,13.52-4.89,88.21,88.21,0,0,0,9.6-5l3.34-2.13,2.35-1.72,1.44-1Z"/><path class="cls-2" d="M236.9,129.84l-.54.27-1.61.75-6.2,2.83-4.48,2c-1.66.72-3.5,1.38-5.45,2.16-3.94,1.47-8.34,3.39-13.41,4.92l-7.9,2.57c-1.37.48-2.8.83-4.25,1.22l-4.43,1.19L184,149l-2.35.63-2.42.51-10,2.09A286.16,286.16,0,0,1,124,156.9a279.47,279.47,0,0,1-45.39-3.26l-10.07-1.85-2.43-.45c-.8-.17-1.58-.38-2.36-.56l-4.62-1.13-4.45-1.09c-1.46-.37-2.9-.67-4.28-1.13L42.45,145c-5.1-1.44-9.52-3.32-13.47-4.75-2-.76-3.81-1.4-5.47-2.11l-4.49-2-6.21-2.81-1.61-.75-.54-.26s.19.06.56.22l1.63.69,6.25,2.72,4.51,2c1.66.69,3.51,1.32,5.48,2.06,3.95,1.41,8.37,3.26,13.47,4.68L50.5,147c1.37.46,2.82.75,4.27,1.11l4.46,1.08,4.6,1.11c.79.19,1.57.39,2.37.56l2.42.44,10,1.83A283.33,283.33,0,0,0,124,156.38a288.89,288.89,0,0,0,45.19-4.61l10-2.07,2.41-.5,2.35-.62,4.59-1.21L193,146.2c1.44-.38,2.88-.73,4.24-1.2l7.9-2.54c5.08-1.5,9.48-3.39,13.42-4.84,2-.77,3.8-1.42,5.46-2.12l4.5-2,6.24-2.75,1.62-.7Z"/><path class="cls-2" d="M115.43,294.66a1.53,1.53,0,0,1-.08-.31c0-.23-.09-.54-.17-.94-.14-.85-.35-2.07-.62-3.64-.53-3.21-1.3-7.86-2.26-13.7-1.91-11.75-4.6-28.32-7.74-47.7l.06.12c-7.45-8.11-15.58-17.05-23.84-26.58-9.31-10.74-17.87-21.25-25.28-31.09-3.71-4.91-7.11-9.67-10.26-14.16s-6-8.68-8.3-12.78A31.89,31.89,0,0,1,32.83,132,20,20,0,0,1,34,122.65a14.46,14.46,0,0,1,3.22-5l.66-.63.52-.4c.27-.21.42-.31.42-.31s-.12.12-.39.35l-.5.42-.63.64a14.66,14.66,0,0,0-3.11,5A20,20,0,0,0,33.12,132a31.37,31.37,0,0,0,4.15,11.7c2.25,4.06,5.24,8.2,8.33,12.72s6.56,9.22,10.29,14.11c7.42,9.82,16,20.31,25.29,31,8.25,9.52,16.37,18.46,23.8,26.59l0,.06v.07c3.07,19.39,5.69,36,7.55,47.73.91,5.86,1.63,10.51,2.13,13.72.24,1.58.42,2.81.55,3.66,0,.4.09.71.13.94Z"/><path class="cls-2" d="M222.86,85.69c0,.06-.51,0-1.41.18a6.61,6.61,0,0,0-3.37,1.6,14.21,14.21,0,0,0-3.25,4.59,43.88,43.88,0,0,0-2.41,6.56c-1.4,4.78-2.2,9.23-2.82,12.44-.28,1.54-.5,2.82-.68,3.82a7,7,0,0,1-.32,1.39,8.21,8.21,0,0,1,.12-1.42c.11-.91.27-2.23.51-3.85a104.92,104.92,0,0,1,2.69-12.53,41.9,41.9,0,0,1,2.48-6.62,14.17,14.17,0,0,1,3.44-4.66,6.53,6.53,0,0,1,3.59-1.52,5.56,5.56,0,0,1,1.06,0A1.38,1.38,0,0,1,222.86,85.69Z"/></g><g id="Icons"><path class="cls-3" d="M130.57,342.47a13.71,13.71,0,1,0-10,.06c-21.06,3.15-20,24.9-20,24.9l49.85-.08S151.49,345.34,130.57,342.47Z"/><path class="cls-3" d="M88.19,77.11l-1.12,1.52c-8.25,11.14.27,20.68,2.18,22.58l25.46-25.55a22.3,22.3,0,0,0-6.6-4.41c-5.55-2.35-10.91-1.6-15.93,2.21l-1.5,1.13.73-1.73A9.82,9.82,0,0,0,75.49,62a9.52,9.52,0,0,0-2.79,6.87,9.85,9.85,0,0,0,13.77,9Z"/><path class="cls-1" d="M197,12.86a6.54,6.54,0,1,0,1.58,4.49c4.69,9,14.35,5.15,14.35,5.15L205.16,0S195.07,3,197,12.86Z"/><rect class="cls-3" x="150.53" y="51.04" width="28.41" height="28.41" rx="3.34" transform="translate(126.96 -107.86) rotate(56.09)"/><rect class="cls-3" x="67.49" y="5.32" width="16.01" height="16.01" rx="3.34" transform="translate(16.78 -35.96) rotate(30)"/><path class="cls-1" d="M28.7,28.3l-2.87-4.13.44-1.31-7.88-2.61-.75,2.26s-2.65,5.21-3,6.29a1.86,1.86,0,0,0-.09.48,2.53,2.53,0,0,0,1.83,2.58c2.23.69,6.36,1.93,6.71,1.76S25,29.08,25,29.08s-.75-.54,2.45.79,3.75-.74,3.75-.74Z"/><polygon class="cls-1" points="28.2 19.33 19.34 17.29 18.6 19.54 27.01 22.32 28.2 19.33"/><path class="cls-2" d="M32.05,55.61l2.82,2.9a1.34,1.34,0,0,0,1.2.39l4-.68a1.36,1.36,0,0,1,1.42,2l-1.89,3.58a1.4,1.4,0,0,0,0,1.26l1.88,3.58a1.35,1.35,0,0,1-1.43,2l-4-.69a1.36,1.36,0,0,0-1.19.39L32,73.16a1.35,1.35,0,0,1-2.31-.75l-.58-4a1.34,1.34,0,0,0-.73-1l-3.63-1.8a1.36,1.36,0,0,1,0-2.43l3.63-1.78a1.39,1.39,0,0,0,.75-1l.58-4A1.36,1.36,0,0,1,32.05,55.61Z"/><path class="cls-1" d="M146.7,96.62l.62,4a1.36,1.36,0,0,0,.76,1l3.64,1.75a1.35,1.35,0,0,1,0,2.43l-3.61,1.83a1.37,1.37,0,0,0-.72,1l-.54,4a1.35,1.35,0,0,1-2.3.77l-2.86-2.86a1.33,1.33,0,0,0-1.2-.38l-4,.73a1.35,1.35,0,0,1-1.45-1.94l1.85-3.61a1.37,1.37,0,0,0,0-1.26L135,100.57a1.35,1.35,0,0,1,1.4-2l4,.63a1.33,1.33,0,0,0,1.19-.4l2.79-2.93A1.36,1.36,0,0,1,146.7,96.62Z"/></g></g></svg>