<svg xmlns="http://www.w3.org/2000/svg" xmlns:xlink="http://www.w3.org/1999/xlink" viewBox="0 0 649.8 456.15"><defs><style>.cls-1{fill:none;}.cls-2{fill:#b1d5e9;}.cls-22,.cls-23,.cls-24,.cls-27,.cls-3{fill:#fff;}.cls-4{fill:#181b3e;}.cls-5{fill:#ffa690;}.cls-6{fill:#ffc269;}.cls-7{fill:#43498f;}.cls-8{fill:#535b9b;}.cls-9{fill:#e38073;}.cls-10{fill:#222930;}.cls-11{fill:#472f25;}.cls-12{fill:#161c21;}.cls-13{fill:#f4ac4e;}.cls-14{fill:#d1ecff;}.cls-15{font-size:32.02px;letter-spacing:0.03em;}.cls-15,.cls-28{fill:#fc7aa2;}.cls-15,.cls-22,.cls-23,.cls-24,.cls-27{font-family:MyriadPro-Regular, Myriad Pro;}.cls-16{letter-spacing:0.04em;}.cls-17{fill:#6b92ff;}.cls-18{fill:#483540;}.cls-19{clip-path:url(#clip-path);}.cls-20{fill:#5eabde;}.cls-21{fill:#4e9fcc;}.cls-22{font-size:26.23px;letter-spacing:0.03em;}.cls-23{font-size:22.09px;letter-spacing:0.05em;}.cls-24{font-size:23.47px;letter-spacing:0.05em;}.cls-25{letter-spacing:0.06em;}.cls-26{letter-spacing:0.04em;}.cls-27{font-size:30.37px;letter-spacing:0.05em;}</style><clipPath id="clip-path"><path class="cls-1" d="M498.78,185.88c-7.54,0-16-5.46-18.65-12.11-6.18-15.62-7.24-37.08,15.16-37.08,12.34,0,19.67,9.65,19.62,20.49a40.07,40.07,0,0,1-4.44,17.64C506.85,181.82,503.61,185.88,498.78,185.88Z"/></clipPath></defs><title>news_categories_4</title><g id="Layer_2" data-name="Layer 2"><g id="OBJECTS"><ellipse class="cls-2" cx="322.82" cy="443.18" rx="299.3" ry="12.96"/><path class="cls-3" d="M147.16,415a81.38,81.38,0,0,0,14.28,1.21l.24,5.3a74.51,74.51,0,0,1-13.6-1.67Z"/><path class="cls-4" d="M115.44,433.49l13.92-6.41,2.8,2.24.77-1-2.32-1.85,2.14-1,3.19,2.54.77-1-2.7-2.15,2.15-1,3.34,2.66.77-1-2.85-2.27,2.57-1.18,1.32-8.29q3.15.64,5.85,1.06l.92,4.84a74.51,74.51,0,0,0,13.6,1.67l.66,14.54h-48.2A14.25,14.25,0,0,1,115.44,433.49Z"/><polygon class="cls-3" points="135.94 428.06 132.75 425.52 134.01 424.94 136.71 427.09 135.94 428.06"/><polygon class="cls-3" points="132.16 429.32 129.36 427.08 130.61 426.5 132.93 428.35 132.16 429.32"/><polygon class="cls-3" points="139.5 426.61 136.16 423.95 137.42 423.37 140.27 425.64 139.5 426.61"/><path class="cls-3" d="M162.34,436v4.66H113a15.59,15.59,0,0,1,1.13-4.66Z"/><rect class="cls-3" x="183.4" y="436.01" width="23.72" height="4.66"/><path class="cls-4" d="M183.4,435.51a47,47,0,0,1,1.14-7.23l.32-5.93a22.22,22.22,0,0,1,2.33-1l.29-6.44a13.74,13.74,0,0,1,5.26-1,11.8,11.8,0,0,1,5.72,1.53l.25,5.94a22.32,22.32,0,0,1,2.52,1.08l.75,5.75a28.69,28.69,0,0,1,5.15,7.81H183.4Z"/><path class="cls-3" d="M198.46,415.43a10.91,10.91,0,0,1,2,1.44l.73,5.58a22.32,22.32,0,0,0-2.52-1.08Z"/><path class="cls-3" d="M187.48,414.93l-.29,6.44a22.22,22.22,0,0,0-2.33,1l.33-6.18A10.46,10.46,0,0,1,187.48,414.93Z"/><rect class="cls-3" x="187.82" y="426.8" width="10.69" height="1.37"/><rect class="cls-3" x="189.19" y="424.03" width="7.96" height="1.37"/><rect class="cls-3" x="190.07" y="421.26" width="6.18" height="1.37"/><path class="cls-5" d="M158.37,133.75l6.85-6.59a1.52,1.52,0,0,0,.05-2.17h0a1.54,1.54,0,0,0-2.12-.09l-7.47,6.51.48,2Z"/><path class="cls-5" d="M163.77,122h0a1.68,1.68,0,0,0-2.4,0l-7,7.3.44,1.86,2.39,0,6.59-6.81A1.66,1.66,0,0,0,163.77,122Z"/><path class="cls-5" d="M160.36,120.52h0a1.56,1.56,0,0,0-2.12.19l-5.82,6.46.85,1.9,1.77,0,5.54-6.23A1.57,1.57,0,0,0,160.36,120.52Z"/><path class="cls-5" d="M156.09,121.16h0a1.24,1.24,0,0,0-1.63.1l-4.13,4.13.46,1.8,2.11.2,3.41-4.52A1.22,1.22,0,0,0,156.09,121.16Z"/><path class="cls-5" d="M161.64,134.28a2.94,2.94,0,0,0-2.79,0l-1,.53,6.3-6.57-5,.76-8.82-3.59-10.7,10.27v0l-28.25,21.55c-.17.13-.33.28-.49.43a6.25,6.25,0,0,0-1.08,7.94l23.76,37.68v0l0,0a8,8,0,1,0,12.81-9.42c-5.21-6.94-16.25-21.8-23.06-31l21.92-22.17,2.48.32a17.14,17.14,0,0,0,7.12-.58,10.31,10.31,0,0,0,3.92-2.33l3-2.8A.67.67,0,0,0,161.64,134.28Z"/><path class="cls-6" d="M147.32,190.83h0l-.38-.43h0l-22.1-27.47L142,145.4c-.25-5.28-6.23-8-6.23-8l-25.93,19.5a7,7,0,0,0-1.72,9.41l13.46,21.29,8.83,14.59a11.64,11.64,0,0,0,2.13,2.5c4.5,4,11.17,3.79,14.88-.45A10.47,10.47,0,0,0,147.32,190.83Z"/><polygon class="cls-7" points="182.69 416.19 204.5 416.19 195.69 261.29 168.9 261.29 142.12 261.29 140.34 416.19 162.15 416.19 168.41 293.34 169.95 293.83 182.69 416.19"/><path class="cls-4" d="M173.07,295.31a.55.55,0,0,1-.18,0l-12-3.85a.57.57,0,1,1,.36-1.09l12,3.84a.58.58,0,0,1,.37.73A.57.57,0,0,1,173.07,295.31Z"/><path class="cls-4" d="M144.55,284h-.14a.58.58,0,0,1-.42-.7l3.62-14.84a.58.58,0,0,1,.7-.42.57.57,0,0,1,.42.69l-3.63,14.84A.56.56,0,0,1,144.55,284Z"/><path class="cls-4" d="M191.69,284a.57.57,0,0,1-.56-.44l-3.62-14.84a.57.57,0,1,1,1.11-.27l3.63,14.84a.59.59,0,0,1-.43.7Z"/><path class="cls-4" d="M169.22,288.19a.59.59,0,0,1-.35-.12l-3.19-2.47a.56.56,0,0,1-.22-.41l-1.09-14.43a.57.57,0,1,1,1.14-.09l1.07,14.18,3,2.31a.57.57,0,0,1,.1.8A.56.56,0,0,1,169.22,288.19Z"/><polygon class="cls-8" points="137.68 406.23 164.65 405.74 163.93 417.35 138.95 416.98 137.68 406.23"/><polygon class="cls-8" points="205.77 406.23 180.05 405.74 180.74 417.35 204.56 416.98 205.77 406.23"/><path class="cls-5" d="M175.2,178.23V162.59H160.36v15.25a1.44,1.44,0,0,1-.92,1.34l-6.69,2.56,4.61,1.82a28.3,28.3,0,0,0,20.18.19l4.82-1.79-6.24-2.4A1.43,1.43,0,0,1,175.2,178.23Z"/><path class="cls-6" d="M200.61,188.3a131.07,131.07,0,0,0-13.5-4.51h0L182.36,182l-4.82,1.79a28.3,28.3,0,0,1-20.18-.19l-4.61-1.82-4.64,1.78A133.84,133.84,0,0,0,134.6,188a9.66,9.66,0,0,0-5.3,13.1l8.44,18.1,1.95,43.92a3.06,3.06,0,0,0,2.64,2.89c8,1.09,33.25,4,53.4.14a3,3,0,0,0,2.46-3l.74-46.85,7-15A9.65,9.65,0,0,0,200.61,188.3Z"/><polygon class="cls-9" points="175.2 173.77 175.2 165.31 166.47 171.41 175.2 173.77"/><path class="cls-5" d="M167.63,172.33c4.69,0,11-3.9,14.63-10.73,7.83-14.86,7.76-38.46-14.63-38.46-22.22,0-22.85,23.25-15.18,38.13C156.06,168.27,162.81,172.33,167.63,172.33Z"/><path class="cls-5" d="M183.53,155.66a4.4,4.4,0,0,0,3.77-2c2.32-3.21,3.1-8.72-2.13-9.47s-6.11,4.67-4.82,8.4A4.56,4.56,0,0,0,183.53,155.66Z"/><path class="cls-5" d="M150.61,155.66a4.4,4.4,0,0,1-3.77-2c-2.32-3.21-3.1-8.72,2.13-9.47s6.12,4.67,4.82,8.4A4.56,4.56,0,0,1,150.61,155.66Z"/><path class="cls-9" d="M167.13,154.89H167c-1-.2-2.86-1-2.71-2.82a3.11,3.11,0,0,1,2.07-2.59l.36-4.05a.58.58,0,0,1,1.15.1l-.4,4.42a.57.57,0,0,1-.44.51,2.13,2.13,0,0,0-1.59,1.7c-.1,1.21,1.77,1.6,1.79,1.6a.58.58,0,0,1-.12,1.14Z"/><path class="cls-10" d="M176.43,146.35a1.7,1.7,0,1,1-1.7-1.75A1.73,1.73,0,0,1,176.43,146.35Z"/><path class="cls-10" d="M161.54,146.35a1.7,1.7,0,1,1-1.7-1.75A1.73,1.73,0,0,1,161.54,146.35Z"/><path class="cls-3" d="M158.93,146a.61.61,0,1,1-.61-.61A.6.6,0,0,1,158.93,146Z"/><circle class="cls-3" cx="173.24" cy="145.98" r="0.61"/><path class="cls-11" d="M178.36,141.79a.61.61,0,0,1-.36-.11,12,12,0,0,0-5.28-1.9.63.63,0,0,1-.59-.68.62.62,0,0,1,.67-.59,13.27,13.27,0,0,1,5.92,2.12.63.63,0,0,1-.36,1.16Z"/><path class="cls-11" d="M156.28,141.76a.63.63,0,0,1-.36-1.16,13.17,13.17,0,0,1,5.94-2.06.64.64,0,0,1,.67.6.62.62,0,0,1-.59.67h0a12.05,12.05,0,0,0-5.31,1.85A.64.64,0,0,1,156.28,141.76Z"/><path class="cls-5" d="M204.82,240c-.09-9.83-.29-33.8-.32-44.06a7.94,7.94,0,0,0-7.65-7.91h-.31a7.94,7.94,0,0,0-7.94,8.12v.05l3.31,39.16-31.82,7.34-.68.16.1.7.91,6.34.11.73.73-.07,37.89-4a6.62,6.62,0,0,0,5.67-6.51Z"/><rect class="cls-10" x="146.01" y="228.49" width="13.49" height="22.27" transform="translate(-10.19 6.81) rotate(-2.47)"/><path class="cls-12" d="M150,239.74c-.09-2.12,1.06-3.88,2.58-4s2.8,1.6,2.9,3.71-1.06,3.88-2.57,3.95S150.11,241.85,150,239.74Z"/><path class="cls-5" d="M162.49,244.7l.38,5.33-6.82,2.25a6.44,6.44,0,0,1-3.74.09l-2.66-.74a4.11,4.11,0,0,1-3-3.66l-.37-5.22a2.78,2.78,0,0,1,1.06-2.37l1.07-.83,2.77.95a8.79,8.79,0,0,0,5.46-.09l2.47-.84Z"/><path class="cls-5" d="M162.49,244.71a18.15,18.15,0,0,0-1.46-5l-2.11-3.2a.63.63,0,0,0-1-.05h0a2.93,2.93,0,0,0-.46,2.57l.85,4.38"/><path class="cls-9" d="M153.87,241.86a7.36,7.36,0,0,1-1.81-.23L149.5,241a.57.57,0,0,1-.41-.7.58.58,0,0,1,.7-.41l2.56.68a6,6,0,0,0,3.06,0l2.27-.61a.57.57,0,1,1,.3,1.1l-2.27.62A7.15,7.15,0,0,1,153.87,241.86Z"/><path class="cls-5" d="M187,154.05a4.1,4.1,0,0,1-3.75,1.54l.56-2.75,2.74-.83Z"/><path class="cls-5" d="M147.17,154.05a4.1,4.1,0,0,0,3.75,1.54l-.56-2.75-2.73-.83Z"/><path class="cls-11" d="M152.72,135.32a65.9,65.9,0,0,0-.5,14.06l-2.44-.46s-6-12.07-1-21.83Z"/><path class="cls-6" d="M206,217.16l.82-19.18h0a10.46,10.46,0,0,0-8.44-10.46c-5.55-.94-10.84,3.11-11.81,9a11.38,11.38,0,0,0-.07,3.29l2.37,16.88s0,12.66,1.5,17.16c0,0-20.86,4-23.72,6.14,0,0-.82,6.52,1.91,11.54,0,0,22.5-2.25,31.93-4.79a7,7,0,0,0,5.15-6.62Z"/><path class="cls-13" d="M166.77,240.19a.57.57,0,0,1-.2-1.11,104.81,104.81,0,0,1,20-5.06.58.58,0,0,1,.65.5.57.57,0,0,1-.5.64,102.6,102.6,0,0,0-19.71,5A.69.69,0,0,1,166.77,240.19Z"/><path class="cls-13" d="M189.19,228.73a.58.58,0,0,1-.58-.57c0-.18-.11-18.11-.59-21.51a.57.57,0,1,1,1.13-.16c.49,3.48.61,20.92.61,21.67a.57.57,0,0,1-.57.57Z"/><path class="cls-11" d="M185.74,128.09s1.23-7.47-7.74-11a12.47,12.47,0,0,0-3.47-.89h0a64.64,64.64,0,0,0-12,.5l-.38.05-.17,0h0c-10.93,1.63-13.26,10.31-13.26,10.31l3.63,11.15s4.55-6,16.2-3.29,13.14.73,13.14.73a98.93,98.93,0,0,1,1.21,13.7l2.43-.46a34.8,34.8,0,0,0,2.59-9.29A17.17,17.17,0,0,0,185.74,128.09Z"/><path class="cls-9" d="M164.74,163.36a.57.57,0,0,1,0-1.14,52.65,52.65,0,0,0,7.63-1.27.57.57,0,0,1,.69.41.58.58,0,0,1-.42.7,52,52,0,0,1-7.83,1.3Z"/><path class="cls-7" d="M230.54,55l185.87-.15A14.55,14.55,0,0,1,431,69.4L431.26,426a14.55,14.55,0,0,1-14.54,14.57l-185.87.15a14.57,14.57,0,0,1-14.57-14.54L216,69.57A14.57,14.57,0,0,1,230.54,55Z"/><path class="cls-3" d="M241.08,80.77l164.83-.13A16.09,16.09,0,0,1,422,96.72l.25,305a16.1,16.1,0,0,1-16.09,16.11L241.35,418a16.11,16.11,0,0,1-16.11-16.09l-.25-305A16.1,16.1,0,0,1,241.08,80.77Z"/><path class="cls-4" d="M292.57,68.41h0a2.68,2.68,0,0,1,2.68-2.69l56.47,0a2.68,2.68,0,0,1,2.69,2.69h0a2.68,2.68,0,0,1-2.68,2.69l-56.47,0A2.69,2.69,0,0,1,292.57,68.41Z"/><rect class="cls-14" x="236.27" y="151.95" width="174.68" height="138.18"/><rect class="cls-14" x="286.56" y="306.64" width="74.21" height="6.87"/><rect class="cls-14" x="236.33" y="319.94" width="174.68" height="6.89"/><rect class="cls-14" x="236.33" y="333.26" width="174.68" height="6.89"/><rect class="cls-14" x="236.33" y="346.58" width="174.68" height="6.89"/><rect class="cls-14" x="236.33" y="359.9" width="174.68" height="6.89"/><rect class="cls-14" x="236.33" y="373.22" width="174.68" height="6.89"/><path class="cls-8" d="M330.85,402.42a6.74,6.74,0,1,1-6.73-6.73A6.73,6.73,0,0,1,330.85,402.42Z"/><rect class="cls-8" x="369.97" y="395.69" width="13.47" height="13.47"/><rect class="cls-8" x="264.79" y="395.69" width="13.47" height="13.47"/><text class="cls-15" transform="translate(243.61 124.02)">SNAPN<tspan class="cls-16" x="99.04" y="0">E</tspan><tspan x="115.97" y="0">WS</tspan></text><polygon class="cls-3" points="296.54 221.04 296.54 189.78 323.61 205.41 350.68 221.04 323.61 236.67 296.54 252.3 296.54 221.04"/><rect class="cls-14" x="240.08" y="134.21" width="167.26" height="3.68"/><path class="cls-13" d="M466.7,271.76l-17.89-9.57,9-16.79A10.14,10.14,0,0,1,475.68,255Zm-15.3-10.35,14.51,7.76,8.08-15.1a8.23,8.23,0,1,0-14.51-7.76Z"/><polygon class="cls-13" points="478.41 261.48 464.63 254.11 450.86 246.74 433.03 271.91 450.2 281.1 467.37 290.28 478.41 261.48"/><polygon class="cls-10" points="540.21 220.05 542.7 223.71 547.07 226.93 555.13 211.3 554.44 210.28 540.21 220.05"/><polygon class="cls-10" points="554.44 210.28 546.48 225.4 540.21 220.05 547.16 204.83 554.44 210.28"/><polygon class="cls-3" points="553.07 211.24 546.63 223.47 541.56 219.14 547.18 206.83 553.07 211.24"/><rect class="cls-5" x="482.98" y="175.44" width="14.84" height="17.97"/><polygon class="cls-9" points="497.82 181.97 497.82 189.64 491.2 184.04 497.82 181.97"/><path class="cls-5" d="M498.78,185.88c-7.54,0-16-5.46-18.65-12.11-6.18-15.62-7.24-37.08,15.16-37.08,12.34,0,19.67,9.65,19.62,20.49a40.07,40.07,0,0,1-4.44,17.64C506.85,181.82,503.61,185.88,498.78,185.88Z"/><polygon class="cls-5" points="490.33 275.84 486.41 280.19 492.74 289.97 500.94 288.21 501.77 283.45 496.59 276.31 490.33 275.84"/><path class="cls-5" d="M493.46,276.08l3.13.23a9.06,9.06,0,0,1,3.72,1.24l3,1.82a.57.57,0,0,1,.08.92h0a2.5,2.5,0,0,1-2.33.52l-5.76-1.58Z"/><path class="cls-5" d="M501.77,283.45l6.06,5.47a1.31,1.31,0,0,1,.09,1.86h0a1.32,1.32,0,0,1-1.81.14l-6.59-5.39.36-1.73Z"/><path class="cls-5" d="M505.64,294.14h0a1.44,1.44,0,0,1-2.06-.07l-5.82-6.46.43-1.59,2.05.1,5.47,6A1.44,1.44,0,0,1,505.64,294.14Z"/><path class="cls-5" d="M501.21,295.51h0a1.35,1.35,0,0,1-1.77-.43l-4.13-6.22,1-1.51,1.49.26,3.93,6A1.35,1.35,0,0,1,501.21,295.51Z"/><path class="cls-5" d="M496.6,294.73h0a1.06,1.06,0,0,1-1.33-.44L492.74,290l.77-1.4,1.8.29,1.85,4.5A1.06,1.06,0,0,1,496.6,294.73Z"/><path class="cls-5" d="M493.58,276.79,474.68,248l17.18-37.39v0a8,8,0,0,0-5-10.44A7.93,7.93,0,0,0,477,205c-3.44,9.41-11.45,31-15,40.63a6.31,6.31,0,0,0,.73,7l24.58,29.12.48.56.58-.45,5.05-4,.55-.43Z"/><path class="cls-17" d="M494.25,211.66c1.1-5.92-2.5-11.53-8-12.53a10.47,10.47,0,0,0-11.49,7h0L469,224.42l16.26,5.43,8-15.07A12,12,0,0,0,494.25,211.66Z"/><path class="cls-5" d="M481.83,192.92s9.34-6.16,16.93.48l-7.31,10.54Z"/><path class="cls-5" d="M512.31,169.73s4.66.27,4.66-2.21c0-1.75-2-2.22-2-2.22l-.4-4.42H511v8.85Z"/><ellipse class="cls-10" cx="507.9" cy="161.33" rx="1.69" ry="1.8"/><circle class="cls-3" cx="509.39" cy="161.13" r="0.61"/><path class="cls-18" d="M504.13,156.53a.64.64,0,0,1-.57-.36.63.63,0,0,1,.29-.85,13.18,13.18,0,0,1,6.17-1.23.64.64,0,0,1-.1,1.27,12.11,12.11,0,0,0-5.51,1.1A.72.72,0,0,1,504.13,156.53Z"/><g class="cls-19"><path class="cls-9" d="M508.79,178.06a.57.57,0,0,1-.43-.19,6.75,6.75,0,0,0-4-1.86.58.58,0,0,1-.51-.64.57.57,0,0,1,.63-.5,7.78,7.78,0,0,1,4.69,2.23.56.56,0,0,1,0,.81A.55.55,0,0,1,508.79,178.06Z"/></g><path class="cls-18" d="M499.25,150.27c-.16,7.4-4.37,14.43-4.37,14.43-8.73,1.81-11.9,13.64-11.9,13.64-14.49-13.42-16.93-46.7,9.15-46.7,29.14,0,22.58,22.4,22.58,22.4-6.12-7-15.46-3.77-15.46-3.77"/><polygon class="cls-5" points="543.68 413.26 543.17 404.03 528.54 406.24 530.79 419.42 543.07 417.57 543.68 413.26"/><path class="cls-4" d="M574.54,422.84a13.31,13.31,0,0,0-9.77-4.25s-3.21,1.37-4.1,6.34c.89-5,4.1-6.34,4.1-6.34l-6.35-2.09-1.58-.52-2.39-.78-1.49-.49-8.23-2.7s-3.93,4.72-8.33,5.39A16.61,16.61,0,0,1,529,417l-1.22,12.93.7,4.61,48.7-7.35A13.15,13.15,0,0,0,574.54,422.84Z"/><path class="cls-13" d="M512,272.9l21.7,67.72a78.21,78.21,0,0,1,3.56,13.93l8.64,54.66-19.57,3.1-14.87-55.1L491.39,315.3l-1.74-42.4H512Z"/><polygon class="cls-5" points="477.94 414.57 481.37 405.99 465.72 400.81 462.31 418.14 474.34 422.1 477.94 414.57"/><path class="cls-4" d="M500.57,440.11a13.3,13.3,0,0,0-7.06-8s-3.49-.1-6.4,4l-31.93-9.38-1.32,4.47,32.08,9.43h14.79C500.68,440.48,500.63,440.29,500.57,440.11Z"/><path class="cls-4" d="M493.51,432.13l-4.88-4.56-1.22-1.15-1.83-1.71-1.15-1.08-6.31-5.92s-5.56,2.62-9.82,1.37a16.66,16.66,0,0,1-6.56-3.52l-6.56,11.21,31.93,9.38C490,432,493.51,432.13,493.51,432.13Z"/><path class="cls-6" d="M508.8,272.9l-7.55,70.7a77.18,77.18,0,0,1-2.67,14.14l-16.39,58-22.86-7.4,14.94-59.93L467,297.86a71,71,0,0,1,.85-25H508.8Z"/><path class="cls-6" d="M512,272.9a168.76,168.76,0,0,1-5.11,18l-1.71-18Z"/><path class="cls-20" d="M510.59,226.5c2.92-3.34,5.35-7.32,5.35-11.24,0-3-2.66-7.32-6-11.35a87.35,87.35,0,0,0-11.23-10.51,11.89,11.89,0,0,1-2.43,1.68,14.18,14.18,0,0,1-3.2,1.22,17.42,17.42,0,0,1-2.41.17c-.48,0-1,0-1.46-.07a12.59,12.59,0,0,1-7.43-3.48l-.9.48c-3.11,1.83-13.14,9.34-11.93,29.48l.54,5.91a90.89,90.89,0,0,1-1.06,24.26l-3.57,19.85s26.61,6.08,50.23,0C510.73,254.59,510.43,235,510.59,226.5Z"/><path class="cls-5" d="M542.21,224.38l2.1,4.91,7.09-1.11a6.49,6.49,0,0,0,3.37-1.62l2-1.88a4.09,4.09,0,0,0,1-4.62l-2-4.82a2.76,2.76,0,0,0-2-1.62l-1.34-.25-2,2.11a8.9,8.9,0,0,1-4.9,2.41l-2.58.38Z"/><path class="cls-5" d="M542.22,224.39a18.21,18.21,0,0,1-1-5.11l.42-3.81a.63.63,0,0,1,.88-.5h0a2.86,2.86,0,0,1,1.59,2.07l1.24,4.28"/><path class="cls-9" d="M544.41,219.05a.58.58,0,0,1-.56-.46.58.58,0,0,1,.44-.68l2.3-.49a6,6,0,0,0,2.73-1.39l2-1.77a.57.57,0,1,1,.77.85l-2,1.77a7.1,7.1,0,0,1-3.26,1.66l-2.3.49Z"/><path class="cls-5" d="M546.56,228.3l-3.2-5.55-.35-.61-.64.29L513,236.23l-20.89-33,0,0v0a7.95,7.95,0,1,0-12.79,9.44c6.17,8.21,20.49,27.42,26.36,35.3a6.5,6.5,0,0,0,1.06,1.1,6.25,6.25,0,0,0,7.33.51l32.3-20.22.63-.39Z"/><path class="cls-20" d="M493.83,202.44c-4.37-4.14-11-4.17-14.89-.07a10.46,10.46,0,0,0-.4,13.43h0l12.25,14.79,13.4-10.69L495.87,205A11.59,11.59,0,0,0,493.83,202.44Z"/><path class="cls-5" d="M492.82,168.21a3.84,3.84,0,0,1-3.3-2c-2.06-3.1-2.81-8.4,1.73-9s5.37,4.55,4.29,8.11A4,4,0,0,1,492.82,168.21Z"/><path class="cls-9" d="M491.83,158.75s-4.7,1-.84,6.56Z"/><path class="cls-18" d="M490.65,153.32s-9.51,2.86-.55,13.64-4.23,30.75-3.07,40.1c2.44,19.48-17.21,25.85-24.65,9.12-5.45-12.24,7-26.57,4.13-37.32s-1.6-45.09,21.78-47Z"/><polygon class="cls-13" points="473.27 403.27 485.74 350.68 485.71 350.98 484.24 281.85 484.62 281.84 487.82 350.91 487.83 351.06 487.79 351.2 473.64 403.37 473.27 403.27"/><path class="cls-21" d="M503.84,220a.68.68,0,0,1-.6-.36l-6.4-11.43a.69.69,0,0,1,.26-.94.7.7,0,0,1,.94.27l6.4,11.43a.69.69,0,0,1-.26.94A.72.72,0,0,1,503.84,220Z"/><path class="cls-21" d="M490.78,231.29a.72.72,0,0,1-.54-.25l-6.11-7.38a.69.69,0,0,1,.1-1,.68.68,0,0,1,1,.09l6.11,7.38a.69.69,0,0,1-.09,1A.68.68,0,0,1,490.78,231.29Z"/><rect class="cls-6" x="464.24" width="157.89" height="109.17" rx="4.7"/><polygon class="cls-6" points="605.3 102.68 621.25 125.24 621.25 102.68 605.3 102.68"/><rect class="cls-3" x="473.19" y="46.9" width="53.1" height="53.1"/><polygon class="cls-6" points="507.96 73.45 491.52 63.96 491.52 82.95 507.96 73.45 491.52 63.96 491.52 82.95 507.96 73.45"/><rect class="cls-3" x="534.72" y="46.9" width="70.76" height="6.84"/><rect class="cls-3" x="534.72" y="58.47" width="70.76" height="6.84"/><rect class="cls-3" x="534.72" y="70.03" width="70.76" height="6.84"/><rect class="cls-3" x="534.72" y="81.6" width="70.76" height="6.84"/><rect class="cls-3" x="534.72" y="93.16" width="45.52" height="6.84"/><text class="cls-22" transform="translate(481.98 35.73)">BUSINESS</text><rect class="cls-7" x="1.31" y="4.5" width="117.35" height="132.94" rx="4.7"/><polygon class="cls-7" points="107.67 117.68 135.6 137.44 107.67 137.44 107.67 117.68"/><rect class="cls-3" x="22.69" y="47.08" width="74.58" height="65.75"/><polygon class="cls-7" points="71.53 79.95 48.44 68.2 48.44 91.71 71.53 79.95 48.44 68.2 48.44 91.71 71.53 79.95"/><text class="cls-23" transform="translate(8.82 32.05)">POLITICS</text><rect class="cls-3" x="36.55" y="116.81" width="48.01" height="6.49"/><rect class="cls-3" x="7.74" y="127.29" width="105.63" height="6.49"/><rect class="cls-7" x="547.17" y="247.65" width="101.96" height="131.02" rx="4.7"/><polygon class="cls-7" points="560.94 267.12 533.4 247.65 560.94 247.65 560.94 267.12"/><rect class="cls-3" x="565.75" y="285.68" width="64.8" height="64.8"/><polygon class="cls-7" points="608.18 318.08 588.12 306.5 588.12 329.67 608.18 318.08 588.12 306.5 588.12 329.67 608.18 318.08"/><text class="cls-24" transform="translate(555.94 277.87)">SPO<tspan class="cls-25" x="43.74" y="0">R</tspan><tspan class="cls-26" x="57.75" y="0">T</tspan><tspan x="70.45" y="0">S</tspan></text><rect class="cls-3" x="552.76" y="355.07" width="91.78" height="6.4"/><rect class="cls-3" x="552.76" y="365.09" width="91.78" height="6.4"/><rect class="cls-6" x="2.62" y="254.96" width="134.29" height="141.63" rx="4.7"/><polygon class="cls-6" points="120.42 260.58 136.37 238.01 136.37 260.58 120.42 260.58"/><text class="cls-27" transform="translate(18.07 295.55)">WORLD</text><rect class="cls-3" x="12.57" y="323.85" width="31.99" height="31.23"/><rect class="cls-3" x="51.1" y="324.36" width="71.28" height="4.06"/><rect class="cls-3" x="51.1" y="331.03" width="71.28" height="4.06"/><rect class="cls-3" x="51.1" y="337.7" width="71.28" height="4.05"/><rect class="cls-3" x="51.1" y="344.36" width="71.28" height="4.05"/><rect class="cls-3" x="51.1" y="351.03" width="71.28" height="4.05"/><rect class="cls-3" x="12.57" y="357.69" width="109.81" height="4.05"/><rect class="cls-3" x="12.57" y="364.35" width="109.81" height="4.05"/><rect class="cls-3" x="12.57" y="371.02" width="109.81" height="4.06"/><rect class="cls-3" x="12.57" y="377.69" width="109.81" height="4.06"/><rect class="cls-3" x="12.57" y="384.35" width="109.81" height="4.05"/><polygon class="cls-28" points="92 206.4 114.56 222.35 92 222.35 92 206.4"/><rect class="cls-28" y="175.6" width="105.45" height="46.75" rx="3.08"/><rect class="cls-3" x="9.99" y="186.3" width="25.35" height="25.35"/><polygon class="cls-28" points="26.59 198.98 18.74 194.44 18.74 203.51 26.59 198.98 18.74 194.44 18.74 203.51 26.59 198.98"/><rect class="cls-3" x="51.04" y="186.3" width="33.46" height="3.53"/><rect class="cls-3" x="39.76" y="193.67" width="56.03" height="3.53"/><rect class="cls-3" x="39.76" y="201.05" width="56.03" height="3.53"/><rect class="cls-3" x="39.76" y="208.42" width="56.03" height="3.53"/><polygon class="cls-28" points="554.99 166.6 532.43 150.65 554.99 150.65 554.99 166.6"/><rect class="cls-28" x="544.35" y="150.64" width="105.45" height="46.75" rx="3.08"/><rect class="cls-3" x="554.34" y="161.34" width="25.35" height="25.35"/><polygon class="cls-28" points="570.94 174.01 563.09 169.48 563.09 178.55 570.94 174.01 563.09 169.48 563.09 178.55 570.94 174.01"/><rect class="cls-3" x="595.39" y="161.34" width="33.46" height="3.53"/><rect class="cls-3" x="584.11" y="168.71" width="56.03" height="3.53"/><rect class="cls-3" x="584.11" y="176.09" width="56.03" height="3.53"/><rect class="cls-3" x="584.11" y="183.46" width="56.03" height="3.53"/></g></g></svg>