<svg xmlns="http://www.w3.org/2000/svg" viewBox="0 0 189.63 222.32"><defs><style>.cls-1{fill:#f2a941;}.cls-2{fill:#fdc563;}.cls-3,.cls-4{fill:none;stroke:#153e5f;stroke-linecap:round;stroke-linejoin:round;}.cls-3{stroke-width:0.62px;}.cls-4{stroke-width:0.75px;}.cls-5{fill:#153e5f;}</style></defs><title>secure</title><g id="Layer_2" data-name="Layer 2"><g id="OBJECTS"><path class="cls-1" d="M180.78,46.31l8.85,8.84-5.43,51.13c-3.33,31.44-21.84,61.33-50.64,81.78L85.34,222.32l-10-8.32-.17-.15Z"/><path class="cls-2" d="M98.29,0,6,46.31.54,97.44c-3.33,31.45,8.82,61.32,33.28,81.78l41.75,34.93,49.16-34.93c28.8-20.46,47.29-50.33,50.63-81.78l5.43-51.13Z"/><path class="cls-3" d="M75.57,214.15l49.16-34.93c28.8-20.46,47.29-50.33,50.63-81.78"/><path class="cls-4" d="M75.57,214.15l49.16-34.93c28.8-20.46,47.29-50.33,50.63-81.78"/><path class="cls-1" d="M43.88,167.71C22.7,150,12.2,124.38,15.06,97.44L19.55,55l77-38.62L165.35,55l-4.5,42.4c-2.86,26.94-18.8,52.56-43.74,70.27l-39.6,28.13Z"/><polyline class="cls-4" points="15.05 97.44 19.55 55.04 96.55 16.42 165.35 55.04 160.85 97.44"/><path class="cls-5" d="M109.92,81.56c1.19-11.2-6.93-20.28-18.13-20.28S70.54,70.36,69.36,81.56a17.91,17.91,0,0,0,9.26,18.11l-3.55,33.46a8,8,0,0,0,8.13,9.1,10.36,10.36,0,0,0,10.06-9.1l3.55-33.46A23.17,23.17,0,0,0,109.92,81.56Z"/></g></g></svg>