<svg xmlns="http://www.w3.org/2000/svg" viewBox="0 0 152.22 133.95"><defs><style>.cls-1{fill:#fce48d;}.cls-2{fill:#404040;}.cls-3{fill:gray;}.cls-4{fill:#606060;}.cls-5{fill:#4ac6d8;}.cls-6{fill:#e0e0e0;}.cls-7{fill:#3a9eac;}.cls-8{fill:#f19b2c;}.cls-9{fill:#f8be49;}.cls-10{fill:#45b9ca;}.cls-11{fill:#fff;}.cls-12{fill:#f7b23f;}.cls-13{fill:#707070;}.cls-14{fill:#505050;}.cls-15{fill:#fece57;}</style></defs><title>sources_news_feed_1</title><g id="Layer_2" data-name="Layer 2"><g id="illustrations"><path class="cls-1" d="M150.17,97.3a15.87,15.87,0,1,1-15.86-15.86A15.86,15.86,0,0,1,150.17,97.3Z"/><path class="cls-1" d="M23.73,89.15A11.32,11.32,0,1,1,12.41,77.83,11.32,11.32,0,0,1,23.73,89.15Z"/><circle class="cls-1" cx="91.84" cy="12.99" r="12.37"/><path class="cls-1" d="M9.31,76.91a4.66,4.66,0,1,1-4.65-4.65A4.66,4.66,0,0,1,9.31,76.91Z"/><path class="cls-1" d="M44.09,42.17A18.9,18.9,0,1,1,25.2,23.28,18.89,18.89,0,0,1,44.09,42.17Z"/><circle class="cls-1" cx="123.15" cy="30" r="29.07"/><path class="cls-2" d="M91.34,18.34h-2l-1.1-4.25c0-.15-.11-.47-.2-.94a8.61,8.61,0,0,1-.17-1c0,.2-.08.52-.17,1s-.16.76-.2.95l-1.09,4.24h-2l-2.07-8.1h1.69l1,4.42q.27,1.23.39,2.13c0-.22.07-.54.15-1a8.36,8.36,0,0,1,.23-1l1.17-4.54h1.63l1.18,4.54c0,.2.11.51.19.93s.14.78.18,1.08c0-.29.09-.65.18-1.08s.15-.78.22-1.05l1-4.42H93.4Z"/><path class="cls-2" d="M93.85,18.34v-8.1h1.71v8.1Z"/><path class="cls-2" d="M103.55,18.34h-2l-2.12-3.41-.73.52v2.89H97v-8.1h1.71V14l.68-.95,2.19-2.76h1.91l-2.83,3.59Z"/><path class="cls-2" d="M104,18.34v-8.1h1.72v8.1Z"/><rect class="cls-2" x="24.07" y="71.73" width="106.29" height="59.22" rx="1.5"/><path class="cls-3" d="M17.84,130a2.58,2.58,0,0,0-.4,1.37A2.61,2.61,0,0,0,20.05,134H134.37a2.59,2.59,0,0,0,2.21-4Z"/><path class="cls-4" d="M70.31,130a3.47,3.47,0,0,0,3.15,2H81a3.48,3.48,0,0,0,3.15-2Z"/><rect class="cls-5" x="27.57" y="75.06" width="99.04" height="51.9"/><rect class="cls-6" x="28.82" y="81.13" width="96.54" height="41.83"/><rect class="cls-4" x="28.82" y="77.44" width="96.54" height="2.9"/><path class="cls-7" d="M23.79,40.71a5,5,0,0,0,7.82-6.28Z"/><path class="cls-8" d="M30.36,53.8a.27.27,0,0,1-.2-.09L28.5,51.82l-1.66,1.89a.26.26,0,0,1-.39-.35l1.86-2.11a.26.26,0,0,1,.39,0l1.86,2.11a.26.26,0,0,1,0,.37A.31.31,0,0,1,30.36,53.8Z"/><path class="cls-8" d="M28.5,53.8a.27.27,0,0,1-.26-.27v-6.6a.27.27,0,1,1,.53,0v6.6A.27.27,0,0,1,28.5,53.8Z"/><polygon class="cls-9" points="16.9 39.32 11.51 36.84 16.9 34.36 16.9 39.32"/><path class="cls-5" d="M25.75,36.84A4.83,4.83,0,1,1,20.92,32,4.83,4.83,0,0,1,25.75,36.84Z"/><path class="cls-5" d="M18.21,39.28a9.21,9.21,0,0,0,18.42,0Z"/><path class="cls-10" d="M25.46,41.49a5,5,0,0,0,7.82-6.28Z"/><path class="cls-11" d="M19.56,35.34a1,1,0,1,1-1-1A1,1,0,0,1,19.56,35.34Z"/><path class="cls-12" d="M27.32,53.8a.27.27,0,0,1-.2-.09l-1.66-1.89L23.8,53.71a.26.26,0,0,1-.39-.35l1.85-2.11a.27.27,0,0,1,.4,0l1.86,2.11a.27.27,0,0,1,0,.37A.28.28,0,0,1,27.32,53.8Z"/><path class="cls-12" d="M25.46,53.8a.27.27,0,0,1-.26-.27v-6.6a.27.27,0,1,1,.53,0v6.6A.27.27,0,0,1,25.46,53.8Z"/><rect class="cls-11" x="7.53" y="83.51" width="31.62" height="37.59"/><path class="cls-13" d="M17.58,100.13H9.74a.45.45,0,0,1,0-.89h7.84a.45.45,0,0,1,0,.89Z"/><path class="cls-13" d="M21.94,102.22H9.74a.44.44,0,0,1,0-.88h12.2a.44.44,0,1,1,0,.88Z"/><path class="cls-13" d="M37.33,102.22H25.13a.44.44,0,1,1,0-.88h12.2a.44.44,0,0,1,0,.88Z"/><path class="cls-13" d="M14.89,104.32H9.74a.45.45,0,0,1,0-.89h5.15a.45.45,0,0,1,0,.89Z"/><path class="cls-13" d="M37.33,104.32h-7.4a.45.45,0,0,1,0-.89h7.4a.45.45,0,0,1,0,.89Z"/><path class="cls-13" d="M27,104.32H17.38a.45.45,0,1,1,0-.89H27a.45.45,0,0,1,0,.89Z"/><path class="cls-13" d="M20.1,106.41H9.74A.44.44,0,0,1,9.3,106a.44.44,0,0,1,.44-.44H20.1a.44.44,0,0,1,.44.44A.44.44,0,0,1,20.1,106.41Z"/><path class="cls-13" d="M37.33,106.41H22.8a.43.43,0,0,1-.44-.44.44.44,0,0,1,.44-.44H37.33a.44.44,0,0,1,.44.44A.43.43,0,0,1,37.33,106.41Z"/><path class="cls-13" d="M23.44,108.51H9.74a.44.44,0,0,1-.44-.44.44.44,0,0,1,.44-.44h13.7a.44.44,0,0,1,.44.44A.44.44,0,0,1,23.44,108.51Z"/><path class="cls-13" d="M37.33,108.51H27.45a.44.44,0,0,1-.44-.44.44.44,0,0,1,.44-.44h9.88a.43.43,0,0,1,.44.44A.44.44,0,0,1,37.33,108.51Z"/><path class="cls-13" d="M37.33,100.13H19.83a.45.45,0,0,1,0-.89h17.5a.45.45,0,0,1,0,.89Z"/><path class="cls-13" d="M17.58,110.7H9.74a.45.45,0,0,1,0-.89h7.84a.45.45,0,0,1,0,.89Z"/><path class="cls-13" d="M21.94,112.79H9.74a.44.44,0,0,1,0-.88h12.2a.44.44,0,1,1,0,.88Z"/><path class="cls-13" d="M37.33,112.79H25.13a.44.44,0,1,1,0-.88h12.2a.44.44,0,0,1,0,.88Z"/><path class="cls-13" d="M14.89,114.89H9.74a.45.45,0,0,1,0-.89h5.15a.45.45,0,0,1,0,.89Z"/><path class="cls-13" d="M37.33,114.89h-7.4a.45.45,0,0,1,0-.89h7.4a.45.45,0,0,1,0,.89Z"/><path class="cls-13" d="M27,114.89H17.38a.45.45,0,1,1,0-.89H27a.45.45,0,0,1,0,.89Z"/><path class="cls-13" d="M20.1,117H9.74a.44.44,0,0,1-.44-.44.44.44,0,0,1,.44-.44H20.1a.44.44,0,0,1,.44.44A.44.44,0,0,1,20.1,117Z"/><path class="cls-13" d="M37.33,117H22.8a.43.43,0,0,1-.44-.44.44.44,0,0,1,.44-.44H37.33a.44.44,0,0,1,.44.44A.43.43,0,0,1,37.33,117Z"/><path class="cls-13" d="M23.44,119.08H9.74a.44.44,0,0,1-.44-.44.44.44,0,0,1,.44-.44h13.7a.44.44,0,0,1,.44.44A.44.44,0,0,1,23.44,119.08Z"/><path class="cls-13" d="M37.33,119.08H27.45a.44.44,0,0,1-.44-.44.44.44,0,0,1,.44-.44h9.88a.43.43,0,0,1,.44.44A.44.44,0,0,1,37.33,119.08Z"/><path class="cls-13" d="M37.33,110.7H19.83a.45.45,0,0,1,0-.89h17.5a.45.45,0,0,1,0,.89Z"/><rect class="cls-10" x="7.53" y="82.94" width="31.62" height="11.17"/><path class="cls-14" d="M26.77,97.32H9.91a.62.62,0,0,1-.61-.61.61.61,0,0,1,.61-.61H26.77a.61.61,0,0,1,.61.61A.62.62,0,0,1,26.77,97.32Z"/><path class="cls-11" d="M13.42,88.17H12.36l-1.7-3h0c0,.52,0,.89,0,1.12v1.84H10V84.26H11l1.69,2.92h0c0-.5,0-.86,0-1.07V84.26h.75Z"/><path class="cls-11" d="M16.65,88.17H14.4V84.26h2.25v.68H15.23v.85h1.32v.68H15.23v1h1.42Z"/><path class="cls-11" d="M21.28,88.17h-1l-.53-2.06c0-.07-.05-.22-.1-.45s-.07-.38-.08-.46c0,.09,0,.25-.08.46s-.08.37-.1.46l-.53,2H18l-1-3.91h.81l.5,2.13c.09.39.15.74.19,1,0-.1,0-.25.08-.47a4.08,4.08,0,0,1,.1-.49l.57-2.19H20l.57,2.19q0,.14.09.45a4.33,4.33,0,0,1,.08.51c0-.13,0-.31.09-.52s.08-.37.11-.5l.5-2.13h.81Z"/><path class="cls-11" d="M25.07,87.08a1,1,0,0,1-.38.83,1.63,1.63,0,0,1-1.06.31A2.45,2.45,0,0,1,22.52,88v-.77a4.94,4.94,0,0,0,.67.25,1.92,1.92,0,0,0,.5.08.72.72,0,0,0,.42-.11.35.35,0,0,0,.15-.31.29.29,0,0,0-.07-.2.66.66,0,0,0-.19-.18c-.08,0-.25-.14-.5-.26a2.47,2.47,0,0,1-.54-.32,1.48,1.48,0,0,1-.29-.37,1,1,0,0,1-.1-.48,1,1,0,0,1,.35-.81,1.44,1.44,0,0,1,1-.3,2.2,2.2,0,0,1,.58.07,3.71,3.71,0,0,1,.58.21l-.27.64-.51-.18a1.92,1.92,0,0,0-.41,0,.57.57,0,0,0-.36.11.37.37,0,0,0-.12.29.32.32,0,0,0,.05.19.59.59,0,0,0,.16.15,3.07,3.07,0,0,0,.53.28,2.19,2.19,0,0,1,.75.52A1.09,1.09,0,0,1,25.07,87.08Z"/><path class="cls-11" d="M10,92.86V89h.83v3.22h1.58v.69Z"/><path class="cls-11" d="M15.29,92.86H13V89h2.25v.68H13.87v.86H15.2v.68H13.87v1h1.42Z"/><path class="cls-11" d="M17.62,92.86h-.83V89.64H15.73V89h2.95v.69H17.62Z"/><path class="cls-11" d="M20.79,92.86H20V89.64H18.9V89h3v.69H20.79Z"/><path class="cls-11" d="M24.7,92.86H22.45V89H24.7v.68H23.28v.86H24.6v.68H23.28v1H24.7Z"/><path class="cls-11" d="M26.35,91.36v1.5h-.83V89h1.14a2,2,0,0,1,1.18.29,1,1,0,0,1,.38.88,1,1,0,0,1-.19.61,1.38,1.38,0,0,1-.54.43l1.15,1.7h-.92l-.93-1.5Zm0-.67h.27a1,1,0,0,0,.58-.14.46.46,0,0,0,.18-.41.42.42,0,0,0-.19-.39,1.13,1.13,0,0,0-.59-.12h-.25Z"/><rect class="cls-11" x="44.92" y="34.47" width="63.32" height="87.69"/><path class="cls-13" d="M65.63,72.26H50.45a.86.86,0,0,1-.85-.86.85.85,0,0,1,.85-.85H65.63a.86.86,0,1,1,0,1.71Z"/><path class="cls-13" d="M74.08,76.31H50.45a.85.85,0,0,1,0-1.7H74.08a.85.85,0,1,1,0,1.7Z"/><path class="cls-13" d="M103.88,76.31H80.25a.85.85,0,0,1,0-1.7h23.63a.85.85,0,1,1,0,1.7Z"/><path class="cls-13" d="M60.42,80.37h-10a.85.85,0,0,1-.85-.85.86.86,0,0,1,.85-.86h10a.86.86,0,0,1,.85.86A.85.85,0,0,1,60.42,80.37Z"/><path class="cls-13" d="M103.88,80.37H89.54a.85.85,0,0,1-.85-.85.86.86,0,0,1,.85-.86h14.34a.86.86,0,1,1,0,1.71Z"/><path class="cls-13" d="M83.77,80.37H65.23a.85.85,0,0,1-.85-.85.86.86,0,0,1,.85-.86H83.77a.86.86,0,0,1,.85.86A.85.85,0,0,1,83.77,80.37Z"/><path class="cls-13" d="M70.5,84.43h-20a.86.86,0,0,1,0-1.71h20a.86.86,0,1,1,0,1.71Z"/><path class="cls-13" d="M103.88,84.43H75.73a.86.86,0,0,1,0-1.71h28.15a.86.86,0,1,1,0,1.71Z"/><path class="cls-13" d="M77,88.49H50.45a.86.86,0,0,1,0-1.71H77a.86.86,0,0,1,0,1.71Z"/><path class="cls-13" d="M103.88,88.49H84.75a.86.86,0,1,1,0-1.71h19.13a.86.86,0,1,1,0,1.71Z"/><path class="cls-13" d="M103.88,72.26H70a.86.86,0,0,1-.85-.86.85.85,0,0,1,.85-.85h33.9a.86.86,0,1,1,0,1.71Z"/><path class="cls-13" d="M65.63,92.73H50.45a.86.86,0,0,1-.85-.86.85.85,0,0,1,.85-.85H65.63a.86.86,0,1,1,0,1.71Z"/><path class="cls-13" d="M74.08,96.78H50.45a.85.85,0,0,1,0-1.7H74.08a.85.85,0,1,1,0,1.7Z"/><path class="cls-13" d="M103.88,96.78H80.25a.85.85,0,0,1,0-1.7h23.63a.85.85,0,1,1,0,1.7Z"/><path class="cls-13" d="M60.42,100.84h-10a.85.85,0,0,1-.85-.85.86.86,0,0,1,.85-.86h10a.86.86,0,0,1,.85.86A.85.85,0,0,1,60.42,100.84Z"/><path class="cls-13" d="M103.88,100.84H89.54a.85.85,0,0,1-.85-.85.86.86,0,0,1,.85-.86h14.34a.86.86,0,1,1,0,1.71Z"/><path class="cls-13" d="M83.77,100.84H65.23a.85.85,0,0,1-.85-.85.86.86,0,0,1,.85-.86H83.77a.86.86,0,0,1,.85.86A.85.85,0,0,1,83.77,100.84Z"/><path class="cls-13" d="M70.5,104.9h-20a.86.86,0,0,1,0-1.71h20a.86.86,0,1,1,0,1.71Z"/><path class="cls-13" d="M103.88,104.9H75.73a.86.86,0,0,1,0-1.71h28.15a.86.86,0,1,1,0,1.71Z"/><path class="cls-13" d="M77,109H50.45a.86.86,0,0,1,0-1.71H77A.86.86,0,0,1,77,109Z"/><path class="cls-13" d="M103.88,109H84.75a.86.86,0,1,1,0-1.71h19.13a.86.86,0,1,1,0,1.71Z"/><path class="cls-13" d="M103.88,92.73H70a.86.86,0,0,1-.85-.86A.85.85,0,0,1,70,91h33.9a.86.86,0,1,1,0,1.71Z"/><rect class="cls-5" x="49.6" y="38.98" width="54.85" height="21.64"/><rect class="cls-15" x="49.6" y="112.17" width="54.85" height="5.42"/><path class="cls-14" d="M83.42,66.81H50.78a1.18,1.18,0,1,1,0-2.36H83.42a1.18,1.18,0,0,1,0,2.36Z"/><path class="cls-11" d="M65.21,47.57A3.64,3.64,0,0,1,64,50.51a5.12,5.12,0,0,1-3.41,1H59.52v4.23H57V43.86h3.79a5,5,0,0,1,3.29.94A3.35,3.35,0,0,1,65.21,47.57Zm-5.69,1.89h.83A2.76,2.76,0,0,0,62.09,49a1.63,1.63,0,0,0,.58-1.34,1.66,1.66,0,0,0-.49-1.31,2.28,2.28,0,0,0-1.52-.42H59.52Z"/><path class="cls-11" d="M78.25,49.79a6.47,6.47,0,0,1-1.46,4.54,6.34,6.34,0,0,1-8.4,0,6.48,6.48,0,0,1-1.46-4.55,6.41,6.41,0,0,1,1.47-4.54,5.48,5.48,0,0,1,4.2-1.56,5.43,5.43,0,0,1,4.2,1.57A6.48,6.48,0,0,1,78.25,49.79Zm-8.68,0a4.91,4.91,0,0,0,.76,3,2.62,2.62,0,0,0,2.26,1c2,0,3-1.33,3-4s-1-4-3-4a2.64,2.64,0,0,0-2.26,1A4.91,4.91,0,0,0,69.57,49.79Z"/><path class="cls-11" d="M87.73,52.45A3.05,3.05,0,0,1,86.57,55a5,5,0,0,1-3.22.93A7.56,7.56,0,0,1,80,55.2V52.86a13.85,13.85,0,0,0,2,.76,6.33,6.33,0,0,0,1.52.22,2.2,2.2,0,0,0,1.28-.32,1.1,1.1,0,0,0,.44-.94,1,1,0,0,0-.19-.63,2.31,2.31,0,0,0-.58-.52A13.64,13.64,0,0,0,83,50.62a7.22,7.22,0,0,1-1.63-1,3.42,3.42,0,0,1-.87-1.1,3.4,3.4,0,0,1,.74-3.94,4.4,4.4,0,0,1,3-.91,7.4,7.4,0,0,1,1.77.22,13.84,13.84,0,0,1,1.76.62l-.82,2A11.38,11.38,0,0,0,85.29,46a4.76,4.76,0,0,0-1.22-.16,1.58,1.58,0,0,0-1.1.34,1.08,1.08,0,0,0-.39.87,1.12,1.12,0,0,0,.16.58,1.87,1.87,0,0,0,.49.48,17,17,0,0,0,1.6.83,6.51,6.51,0,0,1,2.29,1.6A3.12,3.12,0,0,1,87.73,52.45Z"/><path class="cls-11" d="M94.48,55.76H92V46H88.73v-2.1h9V46H94.48Z"/><path class="cls-11" d="M116.49,33.32A2.28,2.28,0,1,1,114.21,31,2.28,2.28,0,0,1,116.49,33.32Z"/><path class="cls-11" d="M112.08,24.41h-.14v3.46h.14a8.13,8.13,0,0,1,8.1,7.73h3.48A11.6,11.6,0,0,0,112.08,24.41Z"/><path class="cls-11" d="M112.08,16.93h-.14V20.4h.14A15.61,15.61,0,0,1,127.67,35.6h3.46A19.08,19.08,0,0,0,112.08,16.93Z"/><path class="cls-11" d="M112.08,9.41h-.14v3.45h.14A23.16,23.16,0,0,1,135.2,35.6h3.46A26.62,26.62,0,0,0,112.08,9.41Z"/><path class="cls-2" d="M114.44,45.17v4.51h-2.5V37.91h3.43a5.89,5.89,0,0,1,3.55.88,3.1,3.1,0,0,1,1.15,2.65,3.14,3.14,0,0,1-.57,1.85,3.71,3.71,0,0,1-1.62,1.26q2.66,4,3.46,5.13h-2.77l-2.81-4.51Zm0-2h.8a3,3,0,0,0,1.75-.4,1.41,1.41,0,0,0,.56-1.24,1.29,1.29,0,0,0-.58-1.19,3.53,3.53,0,0,0-1.78-.35h-.75Z"/><path class="cls-2" d="M129.77,46.41a3,3,0,0,1-1.15,2.51,4.93,4.93,0,0,1-3.19.92,7.35,7.35,0,0,1-3.33-.71V46.82a13.27,13.27,0,0,0,2,.74,5.8,5.8,0,0,0,1.51.22,2.13,2.13,0,0,0,1.26-.31,1.06,1.06,0,0,0,.44-.94,1,1,0,0,0-.19-.61,2.25,2.25,0,0,0-.57-.52,15.34,15.34,0,0,0-1.52-.8,7.37,7.37,0,0,1-1.62-1,3.49,3.49,0,0,1-.86-1.09,3.36,3.36,0,0,1,.73-3.9,4.38,4.38,0,0,1,2.93-.89A7.17,7.17,0,0,1,128,38a12.52,12.52,0,0,1,1.74.61l-.8,1.94a14.87,14.87,0,0,0-1.56-.54,5.07,5.07,0,0,0-1.21-.15,1.61,1.61,0,0,0-1.09.33,1.1,1.1,0,0,0-.38.86,1,1,0,0,0,.16.58,1.66,1.66,0,0,0,.48.47,14.8,14.8,0,0,0,1.58.83,6.18,6.18,0,0,1,2.27,1.58A3.14,3.14,0,0,1,129.77,46.41Z"/><path class="cls-2" d="M138.85,46.41a3,3,0,0,1-1.15,2.51,4.93,4.93,0,0,1-3.19.92,7.35,7.35,0,0,1-3.33-.71V46.82a13.27,13.27,0,0,0,2,.74,5.8,5.8,0,0,0,1.51.22,2.13,2.13,0,0,0,1.26-.31,1.08,1.08,0,0,0,.44-.94,1,1,0,0,0-.19-.61,2.25,2.25,0,0,0-.57-.52,15.34,15.34,0,0,0-1.52-.8,7.37,7.37,0,0,1-1.62-1,3.49,3.49,0,0,1-.86-1.09,3.36,3.36,0,0,1,.73-3.9,4.38,4.38,0,0,1,2.93-.89,7.17,7.17,0,0,1,1.75.21,13,13,0,0,1,1.74.61l-.8,1.94a14.87,14.87,0,0,0-1.56-.54,5.14,5.14,0,0,0-1.21-.15,1.61,1.61,0,0,0-1.09.33,1.1,1.1,0,0,0-.38.86,1,1,0,0,0,.16.58,1.66,1.66,0,0,0,.48.47,14.8,14.8,0,0,0,1.58.83,6.27,6.27,0,0,1,2.27,1.58A3.14,3.14,0,0,1,138.85,46.41Z"/><path class="cls-13" d="M37.78,14.08a7,7,0,0,0,7,7H57a7,7,0,0,0,7-7h0a7,7,0,0,0-7-7H45.78L49.42,0,40.76,8.36a7,7,0,0,0-1.52,1.46l0,0h0a7,7,0,0,0-1.44,4.23Z"/><path class="cls-11" d="M59.14,12H43.52a.4.4,0,0,1,0-.8H59.14a.4.4,0,0,1,0,.8Z"/><path class="cls-11" d="M59.14,14.92H43.52a.39.39,0,0,1-.4-.39.4.4,0,0,1,.4-.4H59.14a.4.4,0,0,1,.4.4A.39.39,0,0,1,59.14,14.92Z"/><path class="cls-11" d="M59.14,17.81H43.52a.4.4,0,1,1,0-.8H59.14a.4.4,0,1,1,0,.8Z"/><path class="cls-5" d="M73.41,23a7,7,0,0,0-7-7H54.19a7,7,0,0,0-7,7h0a7,7,0,0,0,7,7H65.41l-3.65,7.06,8.67-8.36A7,7,0,0,0,72,27.29l0,0h0A6.94,6.94,0,0,0,73.41,23Z"/><path class="cls-11" d="M68.1,20.5H52.48a.4.4,0,1,1,0-.8H68.1a.4.4,0,0,1,0,.8Z"/><path class="cls-11" d="M68.1,23.38H52.48a.4.4,0,1,1,0-.79H68.1a.4.4,0,1,1,0,.79Z"/><path class="cls-11" d="M68.1,26.27H52.48a.4.4,0,1,1,0-.8H68.1a.4.4,0,0,1,0,.8Z"/><path class="cls-8" d="M135.33,90.19h-3.55A2.09,2.09,0,0,0,130,89.12h-11.8a1.07,1.07,0,1,0,0,2.13h3.6a1.1,1.1,0,0,0,.28,2,1.08,1.08,0,0,0-.39.83,1.1,1.1,0,0,0,1.1,1.1h.29v.09a1,1,0,0,0,1,1h2.2a2.3,2.3,0,0,0,.45,0H130a2.1,2.1,0,0,0,1.86-1.15h3.5Z"/><rect class="cls-4" x="132.62" y="91.68" width="5.4" height="2.03" rx="0.43" transform="translate(42.42 227.89) rotate(-89.91)"/><circle class="cls-5" cx="128.28" cy="105.24" r="3.91"/><path class="cls-5" d="M114.79,92.25a3.91,3.91,0,1,0,3.9,3.9A3.91,3.91,0,0,0,114.79,92.25Z"/><rect class="cls-5" x="120.7" y="92.53" width="1.56" height="16.23" transform="translate(-30.24 143.88) rotate(-55.55)"/><path class="cls-5" d="M141.78,92.25a3.91,3.91,0,1,0,3.91,3.9A3.91,3.91,0,0,0,141.78,92.25Z"/><rect class="cls-5" x="126.97" y="99.87" width="16.23" height="1.56" transform="translate(-33.24 94.05) rotate(-34.45)"/></g></g></svg>