<svg xmlns="http://www.w3.org/2000/svg" viewBox="0 0 155.95 279.49"><defs><style>.cls-1{fill:#43498f;}.cls-2{fill:#fff;}.cls-3{fill:#181b3e;}.cls-4{fill:#d1ecff;}.cls-5{fill:#535b9b;}</style></defs><title>summary_image_3</title><g id="Layer_2" data-name="Layer 2"><g id="OBJECTS"><path class="cls-1" d="M10.53.11,145.18,0a10.55,10.55,0,0,1,10.56,10.54L156,268.83a10.55,10.55,0,0,1-10.54,10.55l-134.65.11A10.55,10.55,0,0,1,.21,269L0,10.66A10.54,10.54,0,0,1,10.53.11Z"/><path class="cls-2" d="M18.17,18.77l119.41-.09a11.66,11.66,0,0,1,11.67,11.65l.18,220.94a11.67,11.67,0,0,1-11.65,11.67L18.37,263A11.67,11.67,0,0,1,6.7,251.38L6.52,30.45A11.67,11.67,0,0,1,18.17,18.77Z"/><path class="cls-3" d="M55.47,9.82h0a2,2,0,0,1,2-1.95l40.9,0a1.94,1.94,0,0,1,2,1.94h0a1.94,1.94,0,0,1-1.94,2l-40.91,0A2,2,0,0,1,55.47,9.82Z"/><rect class="cls-4" x="14.68" y="47.33" width="126.54" height="123.11"/><rect class="cls-4" x="51.12" y="182.4" width="53.76" height="4.97"/><rect class="cls-4" x="14.73" y="192.04" width="126.54" height="4.99"/><rect class="cls-4" x="14.73" y="201.68" width="126.54" height="4.99"/><rect class="cls-4" x="14.73" y="211.33" width="126.54" height="4.99"/><rect class="cls-4" x="14.73" y="220.98" width="126.54" height="4.99"/><rect class="cls-4" x="14.73" y="230.63" width="126.54" height="4.99"/><path class="cls-5" d="M83.2,251.78a4.88,4.88,0,1,1-4.87-4.87A4.87,4.87,0,0,1,83.2,251.78Z"/><rect class="cls-5" x="111.54" y="246.91" width="9.76" height="9.76"/><rect class="cls-5" x="35.35" y="246.91" width="9.76" height="9.76"/><polygon class="cls-2" points="58.72 103.07 58.72 80.42 78.33 91.75 97.94 103.07 78.33 114.39 58.72 125.71 58.72 103.07"/><rect class="cls-4" x="16.76" y="36.02" width="121.16" height="2.66"/></g></g></svg>