<svg xmlns="http://www.w3.org/2000/svg" xmlns:xlink="http://www.w3.org/1999/xlink" viewBox="0 0 3119.93 3111.67"><defs><style>.cls-1,.cls-11,.cls-26,.cls-7{fill:none;}.cls-2{isolation:isolate;}.cls-3{fill:#c1bebf;}.cls-4{fill:#fafafa;}.cls-5{fill:#32234c;}.cls-6{fill:#cecece;}.cls-7{stroke:#cecece;stroke-miterlimit:10;stroke-width:1.55px;}.cls-8{fill:#a87dd3;}.cls-9{fill:#afafe3;}.cls-10{clip-path:url(#clip-path);}.cls-11{stroke:#fafafa;stroke-width:2.29px;}.cls-11,.cls-26{stroke-linecap:round;stroke-linejoin:round;}.cls-12{clip-path:url(#clip-path-2);}.cls-13{opacity:0.4;mix-blend-mode:multiply;}.cls-14{fill:#aaa;}.cls-15{fill:#ff8c85;}.cls-16{fill:#6432b2;}.cls-17{fill:#491c8f;}.cls-18{fill:#713db7;}.cls-19{fill:#919ece;}.cls-20{fill:#ffcb68;}.cls-21{clip-path:url(#clip-path-3);}.cls-22{fill:#f27572;}.cls-23{fill:#272343;}.cls-24{fill:#fff;}.cls-25{fill:#a1abdb;}.cls-26{stroke:#ffcb68;stroke-width:2px;}</style><clipPath id="clip-path"><circle class="cls-1" cx="658.01" cy="1991.57" r="111.45"/></clipPath><clipPath id="clip-path-2"><circle class="cls-1" cx="658.01" cy="1465.07" r="111.45"/></clipPath><clipPath id="clip-path-3"><path class="cls-1" d="M1432.56,926.89a111.45,111.45,0,1,1-38.63-152.8A111.45,111.45,0,0,1,1432.56,926.89Z"/></clipPath></defs><title>summary_1</title><g class="cls-2"><g id="Layer_2" data-name="Layer 2"><g id="Illustration"><path class="cls-3" d="M161,3108.54l1226.2-2.63c85.55-.17,154.76-69.78,154.59-155.46L1536,211.1c-.17-85.69-69.67-155-155.22-154.84L154.59,58.89C69,59.07-.17,128.67,0,214.35L5.75,2953.7C5.93,3039.39,75.42,3108.71,161,3108.54Z"/><path class="cls-4" d="M406.53,3108.54l1226.2-2.63c85.55-.17,154.76-69.78,154.59-155.46L1781.57,211.1c-.18-85.69-69.67-155-155.22-154.84L400.15,58.89c-85.55.18-154.76,69.78-154.59,155.46l5.75,2739.35C251.48,3039.39,321,3108.71,406.53,3108.54Z"/><path class="cls-3" d="M925.49,2896.79c-.13-67.2,54.35-122,121.44-122.12s121.8,54.43,121.94,121.63-54.35,122-121.45,122.12S925.63,2964,925.49,2896.79Zm26.69-.05A95,95,0,1,0,1047,2801.4,95.18,95.18,0,0,0,952.18,2896.74Z"/><rect class="cls-3" x="897.91" y="296.14" width="293.29" height="38.27" rx="1.57" transform="translate(2089.75 628.43) rotate(179.88)"/><path class="cls-3" d="M1016,206.76a28.37,28.37,0,1,0,28.31-28.47A28.38,28.38,0,0,0,1016,206.76Z"/><polygon class="cls-5" points="1648.87 427.55 1652.91 2413.66 1653.63 2674.38 383.88 2677.1 383.17 2416.38 379.12 430.27 1648.87 427.55"/><rect class="cls-6" x="0.21" y="315.27" width="245.79" height="112.28"/><rect class="cls-6" x="5.05" y="2564.82" width="240.95" height="112.28"/><rect class="cls-7" x="71.32" y="622.97" width="91.41" height="365.13" rx="4.54"/><rect class="cls-7" x="71.32" y="1120.4" width="91.41" height="365.13" rx="4.54"/><rect class="cls-8" x="383.88" y="2220.08" width="1269.75" height="457.02"/><rect class="cls-9" x="383.88" y="1763.06" width="1269.75" height="457.02"/><circle class="cls-4" cx="658.01" cy="1991.57" r="149.13"/><g class="cls-10"><path class="cls-9" d="M736,2083.78a67.32,67.32,0,0,0-67.31-67.31H649.5a67.31,67.31,0,0,0-67.31,67.31V2103H736Z"/><path class="cls-9" d="M659.11,1927.3a38.47,38.47,0,1,1-38.46,38.47A38.46,38.46,0,0,1,659.11,1927.3Z"/></g><line class="cls-11" x1="886.2" y1="1949.57" x2="1103.58" y2="1949.57"/><line class="cls-11" x1="886.2" y1="2022.35" x2="1390.17" y2="2022.35"/><rect class="cls-8" x="383.88" y="1236.56" width="1269.75" height="457.02"/><circle class="cls-4" cx="658.01" cy="1465.07" r="149.13"/><g class="cls-12"><path class="cls-8" d="M736,1557.28A67.32,67.32,0,0,0,668.73,1490H649.5a67.31,67.31,0,0,0-67.31,67.31v19.23H736Z"/><path class="cls-8" d="M659.11,1400.81a38.46,38.46,0,1,1-38.46,38.46A38.46,38.46,0,0,1,659.11,1400.81Z"/></g><line class="cls-11" x1="886.2" y1="1423.07" x2="1103.58" y2="1423.07"/><line class="cls-11" x1="886.2" y1="1495.86" x2="1390.17" y2="1495.86"/><g class="cls-13"><polygon class="cls-14" points="1225.21 718.17 1005.58 1118.96 1784.72 1545.93 1784.72 1024.78 1225.21 718.17"/></g><path class="cls-15" d="M2017,931.42l-178.35-93.71-.1.18-14.68-14.51a33.17,33.17,0,0,0-39.19-5.55l-23.47,8.76a143.83,143.83,0,0,0-27.76-.12l-41.8,4,99,65.11c5,2.58,13.4,3.59,20.67,2.52l179.28,105.51Z"/><path class="cls-16" d="M2571,813.4A75.33,75.33,0,0,0,2464.77,805L2251.2,987.38,1933.61,857.2l-50.07,89.51,349,195.56a69,69,0,0,0,78.35-7.7l3.34-2.85,248.4-212.1A75.34,75.34,0,0,0,2571,813.4Z"/><polygon class="cls-4" points="1933.75 857.04 1893.51 838.93 1842.23 924.93 1883.54 946.71 1933.75 857.04"/><circle class="cls-17" cx="2533.9" cy="471.61" r="189.86" transform="translate(408.68 1929.87) rotate(-45)"/><path class="cls-15" d="M2956,2680.43c-2.95-2.21-185.23-127.64-185.23-127.64l59.22-86.39,168.31,152.32Z"/><path class="cls-18" d="M2928.07,2679.82l15.49,107.55a55.59,55.59,0,0,1-.42,18.29L2904,2932.43l191.82-275.59-51.67-24.59-49.51-37.74a7.7,7.7,0,0,0-12.07,1.28Z"/><path class="cls-4" d="M2904,2932.43l14,10.41a15.16,15.16,0,0,0,21.72-3.76L3117,2684.39a16.72,16.72,0,0,0-3.6-22.67l-14-10.41Z"/><path class="cls-15" d="M2617.69,2972.57c0-3.8-8.33-231.51-8.33-231.51h101.77l-20.74,231.51Z"/><path class="cls-18" d="M2559.62,724.9,2517.79,744c-71.43,30.87-118.74,86.12-114.56,135.41l18.82,576.4h353.83V905.31c0-69.13.32-118-52.11-135.7Z"/><path class="cls-15" d="M2512.12,568.75h114.24a.28.28,0,0,1,.28.28V790.75a5.89,5.89,0,0,1-5.89,5.89H2511.84a0,0,0,0,1,0,0V569A.28.28,0,0,1,2512.12,568.75Z"/><path class="cls-19" d="M2412,1455.81l-139.31,654.76c-10.59,45.81,7,93.69,44.2,120.38l517.4,395L2906,2510.43,2480,2116.25l296.22-660.44Z"/><polygon class="cls-19" points="2951.19 2512.65 2854.07 2664.06 2784.17 2613.99 2881.28 2462.58 2951.19 2512.65"/><path class="cls-18" d="M2601.94,2948.54l-74.79,75.73a52.44,52.44,0,0,1-13.73,10L2394,3077.53h323.39l-10.9-58.17.6-64a8.13,8.13,0,0,0-8-9.5Z"/><path class="cls-4" d="M2394,3077.53v17.9c0,9,7,16.24,15.57,16.24h301.12c8.6,0,15.57-7.27,15.57-16.24v-17.9Z"/><rect class="cls-20" x="1011.8" y="826.08" width="1269.75" height="457.02" transform="translate(772.6 -694.61) rotate(30.81)"/><circle class="cls-4" cx="1336.85" cy="869.81" r="149.13" transform="translate(-223.49 1200.05) rotate(-45)"/><g class="cls-21"><path class="cls-20" d="M1356.62,989a67.3,67.3,0,0,0-23.33-92.28l-16.52-9.85a67.29,67.29,0,0,0-92.28,23.33l-9.85,16.51,132.13,78.81Z"/><path class="cls-20" d="M1370.7,815.18A38.46,38.46,0,1,1,1318,828.51,38.46,38.46,0,0,1,1370.7,815.18Z"/></g><line class="cls-11" x1="1554.34" y1="950.62" x2="1741.03" y2="1061.96"/><line class="cls-11" x1="1517.06" y1="1013.13" x2="1949.89" y2="1271.27"/><path class="cls-18" d="M2629.28,704.64,2492.86,805.52l104.68,15.09,80.79-62-23.48-49.8A15.55,15.55,0,0,0,2629.28,704.64Z"/><path class="cls-22" d="M2511.84,724.24c-1.08,2.75,85.23,9.61,114.61-148.27l-114.61,75.75Z"/><circle class="cls-17" cx="2761.46" cy="281.75" r="150.13" transform="translate(2191.59 2998.42) rotate(-83.98)"/><path class="cls-15" d="M2373.87,426.78h252.58a0,0,0,0,1,0,0V678.13a12.54,12.54,0,0,1-12.54,12.54h-227.5a12.54,12.54,0,0,1-12.54-12.54V426.78A0,0,0,0,1,2373.87,426.78Z"/><path class="cls-15" d="M2664.62,534.18a34.57,34.57,0,1,1-34.56-34.56A34.56,34.56,0,0,1,2664.62,534.18Z"/><path class="cls-17" d="M2358.05,423.18s-14,111,268.4,76.44L2652.53,387l-193.85-21.74Z"/><path class="cls-23" d="M2481.72,533a11.79,11.79,0,1,0,11.79-11.78A11.79,11.79,0,0,0,2481.72,533Z"/><path class="cls-23" d="M2397.11,533a11.78,11.78,0,1,0,11.78-11.78A11.79,11.79,0,0,0,2397.11,533Z"/><polygon class="cls-22" points="2447.46 544.7 2420.67 588.42 2453.45 588.42 2447.46 544.7"/><path class="cls-24" d="M2507.22,611.75h-96.68S2449.5,670.16,2507.22,611.75Z"/><path class="cls-25" d="M2805.54,1565.76l-29.34-110H2412l109.92,226.57,70.89,1142.55h133.9l40.17-1111.14C2805.07,1671.89,2819.37,1617.61,2805.54,1565.76Z"/><path class="cls-15" d="M2464.48,1356.18l-32.94-69.48-183.18,58.61-28.11-13-41.53,30.9-87.64,21.41a7.46,7.46,0,0,0-5.52,9.19,8,8,0,0,0,9.54,5.51l50.71-12.39,2.28,8-42,11.27a7.44,7.44,0,0,0-5.3,9.31,8,8,0,0,0,9.67,5.3l41.74-11.22,1.26,4.43-33,10.74a7.4,7.4,0,0,0-4.77,9.58,8,8,0,0,0,9.94,4.78l32-10.41,1.63,5.76-20.46,7.47a7.41,7.41,0,0,0-4.41,9.75,8,8,0,0,0,10.1,4.43l18.95-6.92h0l83.74-26.31c5.34-1.75,12-7,16.3-13Z"/><polygon class="cls-16" points="2817.94 1135.49 2740.83 1162.21 2768.73 1234.83 2817.94 1135.49"/><path class="cls-16" d="M2910.7,1184.19l-1.31-3.4L2770.48,819.23a75.34,75.34,0,0,0-140.66,54l111,288.94,77.11-26.72-49.21,99.34-27.9-72.62-405.55,140.58L2369,1397.5l491.14-117.37a80.63,80.63,0,0,0,9.09-2.82A72.08,72.08,0,0,0,2910.7,1184.19Z"/><polygon class="cls-4" points="2335.28 1302.79 2293.98 1317.72 2326.52 1408.95 2369.04 1397.5 2335.28 1302.79"/><line class="cls-26" x1="2046.65" y1="252.33" x2="2193.35" y2="293.44"/><line class="cls-26" x1="2156.31" y1="1" x2="2299.02" y2="166.98"/><line class="cls-26" x1="2464.33" y1="23.69" x2="2466.18" y2="117.73"/><rect class="cls-19" x="2571.72" y="2787.24" width="171.34" height="76.64"/><path class="cls-15" d="M1750.67,881.57a12,12,0,0,1-5.47-22.77L1809,826.28a12,12,0,1,1,10.93,21.44l-63.81,32.53A12,12,0,0,1,1750.67,881.57Z"/></g></g></g></svg>